<svg width="64" height="64" viewBox="0 0 64 64" fill="none" xmlns="http://www.w3.org/2000/svg">
<path d="M17 30C17 28.8954 17.8954 28 19 28H21C22.1046 28 23 28.8954 23 30V32C23 33.1046 22.1046 34 21 34H19C17.8954 34 17 33.1046 17 32V30Z" fill="black"/>
<path d="M29 30C29 28.8954 29.8954 28 31 28H33C34.1046 28 35 28.8954 35 30V32C35 33.1046 34.1046 34 33 34H31C29.8954 34 29 33.1046 29 32V30Z" fill="black"/>
<path d="M41 30C41 28.8954 41.8954 28 43 28H45C46.1046 28 47 28.8954 47 30V32C47 33.1046 46.1046 34 45 34H43C41.8954 34 41 33.1046 41 32V30Z" fill="black"/>
<path fill-rule="evenodd" clip-rule="evenodd" d="M21.6667 50L10.3333 58V50H4V11H60V50H21.6667ZM13 52.8535V47.3333H6.66667V13.6667H57.3333V47.3333H20.8203L13 52.8535Z" fill="black"/>
</svg>
