<svg width="64" height="64" viewBox="0 0 64 64" fill="none" xmlns="http://www.w3.org/2000/svg">
<path d="M11.9385 11.94C11.939 11.9396 11.9393 11.9392 13 12.9999C14.0607 14.0605 14.061 14.0602 14.0613 14.0599L14.0493 14.0721C14.0381 14.0836 14.0196 14.1026 13.9943 14.129C13.9438 14.1819 13.8662 14.2643 13.7653 14.375C13.5636 14.5965 13.2695 14.9309 12.9136 15.3684C12.2009 16.2444 11.2458 17.5274 10.2904 19.1396C8.37228 22.3765 6.5 26.86 6.5 31.9999C6.5 37.1398 8.37228 41.6233 10.2904 44.8602C11.2458 46.4723 12.2009 47.7554 12.9136 48.6314C13.2695 49.0688 13.5636 49.4032 13.7653 49.6247C13.8662 49.7355 13.9438 49.8179 13.9943 49.8707L14.0312 49.909L14.0493 49.9276L14.0606 49.9391C14.0603 49.9389 14.0607 49.9392 13 50.9999C11.9393 52.0605 11.939 52.0601 11.9385 52.0597L11.935 52.0562L11.9278 52.0489L11.9048 52.0256C11.8858 52.0061 11.8593 51.9788 11.826 51.944C11.7594 51.8743 11.6651 51.7741 11.5472 51.6445C11.3114 51.3856 10.9805 51.009 10.5864 50.5246C9.79912 49.5569 8.75421 48.1524 7.70956 46.3896C5.62772 42.8765 3.5 37.86 3.5 31.9999C3.5 26.1398 5.62772 21.1233 7.70956 17.6102C8.75421 15.8473 9.79912 14.4429 10.5864 13.4751C10.9805 12.9907 11.3114 12.6141 11.5472 12.3552C11.6651 12.2257 11.7594 12.1255 11.826 12.0558C11.8593 12.0209 11.8858 11.9937 11.9048 11.9742L11.9278 11.9508L11.935 11.9435L11.9375 11.941L11.9385 11.94Z" fill="black"/>
<path d="M19.9384 19.9402C19.9389 19.9397 19.9393 19.9392 21 20.9999C22.0607 22.0605 22.0611 22.0601 22.0615 22.0597L22.0636 22.0576L22.0454 22.0767C22.0261 22.097 21.9935 22.1322 21.9492 22.182C21.8607 22.2815 21.7263 22.4391 21.5611 22.6525C21.2301 23.08 20.7783 23.7281 20.3235 24.5808C19.4148 26.2846 18.5 28.7935 18.5 31.9999C18.5 35.2062 19.4148 37.7151 20.3235 39.419C20.7783 40.2717 21.2301 40.9198 21.5611 41.3472C21.7263 41.5607 21.8607 41.7182 21.9492 41.8178C21.9935 41.8675 22.0261 41.9027 22.0454 41.9231L22.0636 41.9421L22.0623 41.9408L22.0615 41.9401C22.0611 41.9397 22.0607 41.9392 21 42.9999C19.9393 44.0605 19.9389 44.0601 19.9384 44.0596L19.935 44.0562L19.9292 44.0503L19.9132 44.034C19.9007 44.0211 19.8845 44.0043 19.8648 43.9834C19.8254 43.9418 19.7722 43.8842 19.707 43.8109C19.5768 43.6643 19.3987 43.4547 19.1889 43.1838C18.7699 42.6425 18.2217 41.8531 17.6765 40.8308C16.5852 38.7846 15.5 35.7935 15.5 31.9999C15.5 28.2062 16.5852 25.2151 17.6765 23.169C18.2217 22.1467 18.7699 21.3573 19.1889 20.816C19.3987 20.5451 19.5768 20.3354 19.707 20.1889C19.7722 20.1156 19.8254 20.058 19.8648 20.0163C19.8845 19.9955 19.9007 19.9786 19.9132 19.9658L19.9292 19.9495L19.935 19.9436L19.9373 19.9412L19.9384 19.9402Z" fill="black"/>
<path d="M49.9387 14.0599C49.939 14.0602 49.9393 14.0605 51 12.9999C52.0606 11.9392 52.061 11.9396 52.0614 11.94L52.0649 11.9435L52.0722 11.9508L52.0951 11.9742C52.1142 11.9937 52.1406 12.0209 52.174 12.0558C52.2406 12.1255 52.3349 12.2257 52.4528 12.3552C52.6886 12.6141 53.0194 12.9907 53.4135 13.4751C54.2008 14.4429 55.2457 15.8473 56.2904 17.6102C58.3722 21.1233 60.5 26.1398 60.5 31.9999C60.5 37.86 58.3722 42.8765 56.2904 46.3896C55.2457 48.1524 54.2008 49.5569 53.4135 50.5246C53.0194 51.009 52.6886 51.3856 52.4528 51.6445C52.3349 51.7741 52.2406 51.8743 52.174 51.944C52.1406 51.9788 52.1142 52.0061 52.0951 52.0256L52.0722 52.0489L52.0649 52.0562L52.0614 52.0597C52.061 52.0601 52.0606 52.0605 51 50.9999C49.9393 49.9392 49.939 49.9395 49.9387 49.9398L49.9507 49.9276L49.9815 49.8959L50.0057 49.8707C50.0562 49.8179 50.1338 49.7355 50.2346 49.6247C50.4363 49.4032 50.7305 49.0688 51.0864 48.6314C51.7991 47.7554 52.7542 46.4723 53.7095 44.8602C55.6277 41.6233 57.5 37.1398 57.5 31.9999C57.5 26.86 55.6277 22.3765 53.7095 19.1396C52.7542 17.5274 51.7991 16.2444 51.0864 15.3684C50.7305 14.9309 50.4363 14.5965 50.2346 14.375C50.1338 14.2643 50.0562 14.1819 50.0057 14.129C49.9804 14.1026 49.9619 14.0836 49.9507 14.0721L49.9387 14.0599Z" fill="black"/>
<path d="M41.9384 22.0597C41.9389 22.0601 41.9393 22.0605 43 20.9999C44.0606 19.9392 44.0611 19.9397 44.0616 19.9402L44.0626 19.9412L44.065 19.9436L44.0708 19.9495L44.0868 19.9658C44.0993 19.9786 44.1155 19.9955 44.1352 20.0163C44.1745 20.058 44.2278 20.1156 44.2929 20.1889C44.4232 20.3354 44.6013 20.5451 44.811 20.816C45.2301 21.3573 45.7783 22.1467 46.3235 23.169C47.4148 25.2151 48.5 28.2062 48.5 31.9999C48.5 35.7935 47.4148 38.7846 46.3235 40.8308C45.7783 41.8531 45.2301 42.6425 44.811 43.1838C44.6013 43.4547 44.4232 43.6643 44.2929 43.8109C44.2278 43.8842 44.1745 43.9418 44.1352 43.9834C44.1155 44.0043 44.0993 44.0211 44.0868 44.034L44.0708 44.0503L44.065 44.0562L44.0616 44.0596C44.0611 44.0601 44.0606 44.0605 43 42.9999C41.9393 41.9392 41.9389 41.9397 41.9384 41.9401L41.9546 41.9231C41.9738 41.9027 42.0065 41.8675 42.0507 41.8178C42.1392 41.7182 42.2736 41.5607 42.4389 41.3472C42.7698 40.9198 43.2217 40.2717 43.6764 39.419C44.5852 37.7151 45.5 35.2062 45.5 31.9999C45.5 28.7935 44.5852 26.2846 43.6764 24.5808C43.2217 23.7281 42.7698 23.08 42.4389 22.6525C42.2736 22.4391 42.1392 22.2815 42.0507 22.182C42.0065 22.1322 41.9738 22.097 41.9546 22.0767L41.9384 22.0597Z" fill="black"/>
<path d="M29 29.9999H35V35.9999H33.5V56.9999H30.5V35.9999H29V29.9999Z" fill="black"/>
</svg>
