<svg width="64" height="64" viewBox="0 0 64 64" fill="none" xmlns="http://www.w3.org/2000/svg">
<path d="M32 57.5C36.25 57.5 37 54.5 37 54.5H27C27 54.5 27.75 57.5 32 57.5Z" fill="black"/>
<path d="M32 12.5C36.614 12.5 39.0506 15.0285 40.416 17.6855C41.11 19.0361 41.5109 20.4038 41.7373 21.4443C41.8497 21.9609 41.9171 22.3884 41.9561 22.6816C41.9755 22.8278 41.9879 22.9403 41.9951 23.0127C41.9987 23.0489 42.0016 23.0754 42.0029 23.0908C42.0036 23.0982 42.0037 23.1032 42.0039 23.1055V23.1074L42.0068 23.1475L42.0127 23.1914V23.1943C42.0129 23.196 42.0133 23.1983 42.0137 23.2012C42.0145 23.2072 42.0151 23.2162 42.0166 23.2275C42.0196 23.2508 42.0244 23.2858 42.0303 23.3301C42.0421 23.4186 42.0593 23.5479 42.082 23.7129C42.1277 24.0435 42.1953 24.5182 42.2822 25.0977C42.4559 26.2555 42.7086 27.8368 43.0254 29.5264C43.3415 31.2124 43.725 33.0254 44.1611 34.6406C44.5861 36.2147 45.0982 37.7454 45.7139 38.7715C46.8329 40.6366 48.4694 42.2587 49.7676 43.3838C50.4261 43.9545 51.0184 44.4157 51.4482 44.7354C51.4655 44.7482 51.4832 44.7601 51.5 44.7725V51.5H12.5V44.7725C12.5168 44.7601 12.5345 44.7482 12.5518 44.7354C12.9816 44.4157 13.5739 43.9545 14.2324 43.3838C15.5306 42.2587 17.1671 40.6366 18.2861 38.7715C18.9018 37.7454 19.4139 36.2147 19.8389 34.6406C20.275 33.0254 20.6585 31.2124 20.9746 29.5264C21.2914 27.8368 21.5441 26.2555 21.7178 25.0977C21.8047 24.5182 21.8723 24.0435 21.918 23.7129C21.9407 23.5479 21.9579 23.4186 21.9697 23.3301C21.9756 23.2858 21.9804 23.2508 21.9834 23.2275C21.9849 23.2162 21.9855 23.2072 21.9863 23.2012C21.9867 23.1983 21.9871 23.196 21.9873 23.1943V23.1914L21.9932 23.1475L21.9951 23.1045C21.9964 23.1046 21.9961 23.1054 21.9961 23.1055L21.9971 23.0908C21.9984 23.0754 22.0013 23.0489 22.0049 23.0127C22.0121 22.9403 22.0245 22.8278 22.0439 22.6816C22.0829 22.3884 22.1503 21.9609 22.2627 21.4443C22.4891 20.4038 22.89 19.0361 23.584 17.6855C24.9494 15.0285 27.386 12.5 32 12.5Z" stroke="black" stroke-width="3" stroke-linecap="square"/>
<path d="M20.1777 11.9297L19.873 12.3154C17.7651 14.9861 16.4365 18.1828 16.0283 21.5518L15.959 22.2275L15.7939 24.1982L12.8037 23.9473L12.9697 21.9756L13.0508 21.1904C13.5253 17.2754 15.068 13.5606 17.5176 10.457L17.8223 10.0703L20.1777 11.9297Z" fill="black"/>
<path d="M46.4824 10.457L46.96 11.0859C49.2879 14.2691 50.6989 18.0358 51.0303 21.9756L51.1963 23.9473L48.206 24.1982L48.041 22.2275C47.756 18.8372 46.5414 15.5956 44.5381 12.8564L44.1269 12.3154L43.8223 11.9297L46.1777 10.0703L46.4824 10.457Z" fill="black"/>
<path d="M34 6V9H30V6H34Z" fill="black"/>
</svg>
