<svg width="64" height="64" viewBox="0 0 64 64" fill="none" xmlns="http://www.w3.org/2000/svg">
<path fill-rule="evenodd" clip-rule="evenodd" d="M7 4V19H19.5V13.3158H44.5V19H57V4H7ZM10 16V7H54V16H47.5V10.3158H16.5V16H10Z" fill="black"/>
<path d="M32 39C30.3431 39 29 40.3431 29 42C29 43.6569 30.3431 45 32 45C33.6569 45 35 43.6569 35 42C35 40.3431 33.6569 39 32 39Z" fill="black"/>
<path fill-rule="evenodd" clip-rule="evenodd" d="M43 42C43 43.152 42.8229 44.2627 42.4945 45.3062L44.5622 46.5L43.0622 49.0981L41.2044 48.0255C39.2392 51.0214 35.8506 53 32 53C25.9249 53 21 48.0751 21 42C21 35.9249 25.9249 31 32 31C38.0751 31 43 35.9249 43 42ZM40 42C40 42.6028 39.9333 43.1899 39.807 43.7546L38.5 43L37 45.5981L38.6003 46.522C37.1585 48.6224 34.7401 50 32 50C27.5817 50 24 46.4183 24 42C24 37.5817 27.5817 34 32 34C36.4183 34 40 37.5817 40 42Z" fill="black"/>
<path fill-rule="evenodd" clip-rule="evenodd" d="M25 18H28V24H36V18H39V24H51.2519L55 60H9L13.0889 24H25V18ZM12.36 57L15.7674 27H48.548L51.6714 57H12.36Z" fill="black"/>
</svg>
