<svg width="64" height="64" viewBox="0 0 64 64" fill="none" xmlns="http://www.w3.org/2000/svg">
<path d="M40.6667 20.3333C42.1395 20.3333 43.3334 19.1394 43.3334 17.6667C43.3334 16.1939 42.1395 15 40.6667 15C39.1939 15 38 16.1939 38 17.6667C38 19.1394 39.1939 20.3333 40.6667 20.3333Z" fill="black"/>
<path fill-rule="evenodd" clip-rule="evenodd" d="M54 4H4V54H54V4ZM51 7H7V29.5719L18.0841 15.0887L31.4857 35.191L41.8591 23.1444L51 37.7698V7ZM7 51V34.5082L17.9159 20.2447L29.5983 37.7682C30.3935 38.9611 32.1073 39.0666 33.0429 37.9802L41.4742 28.1889L51 43.4301V51H7Z" fill="black"/>
<path d="M55.5 13.5V16.5H57V57H14.5V55.5H11.5V60H60V13.5H55.5Z" fill="black"/>
</svg>
