<svg width="64" height="64" viewBox="0 0 64 64" fill="none" xmlns="http://www.w3.org/2000/svg">
<path d="M16.0203 30.8494C14.6845 29.5318 13.7268 27.8798 13.247 26.066C12.7672 24.2521 12.7828 22.3427 13.2923 20.537C13.8018 18.7312 14.7864 17.0952 16.1436 15.7996C17.5007 14.504 19.1806 13.5963 21.0081 13.1711L20.4384 10.7225C19.4501 10.9525 18.4966 11.2963 17.5959 11.7441C16.4319 12.323 15.3562 13.0757 14.4076 13.9812C12.7251 15.5874 11.5044 17.6156 10.8728 19.8543C10.2412 22.093 10.2218 24.4602 10.8166 26.7089C11.152 27.9767 11.6757 29.1806 12.3655 30.2825C12.8992 31.1351 13.5324 31.9265 14.2548 32.6391L16.0203 30.8494Z" fill="black"/>
<path fill-rule="evenodd" clip-rule="evenodd" d="M23 41C32.9411 41 41 32.9411 41 23C41 13.0589 32.9411 5 23 5C13.0589 5 5 13.0589 5 23C5 32.9411 13.0589 41 23 41ZM23 38C31.2843 38 38 31.2843 38 23C38 14.7157 31.2843 8 23 8C14.7157 8 8 14.7157 8 23C8 31.2843 14.7157 38 23 38Z" fill="black"/>
<path fill-rule="evenodd" clip-rule="evenodd" d="M36.3972 38.4271C36.3972 38.4271 36.965 37.9342 37.4953 37.4039C38.0256 36.8736 38.5185 36.3058 38.5185 36.3058L43.8627 41.6499L45.5126 40L58.2405 52.7279L52.5836 58.3848L39.8557 45.6569L41.7413 43.7712L36.3972 38.4271ZM45.5126 44.2426L44.0984 45.6569L52.5836 54.1421L53.9978 52.7279L45.5126 44.2426Z" fill="black"/>
</svg>
