<svg width="64" height="64" viewBox="0 0 64 64" fill="none" xmlns="http://www.w3.org/2000/svg">
<path fill-rule="evenodd" clip-rule="evenodd" d="M6 11H44V24H56.0968L59.8733 36.578C59.9573 36.8578 60 37.1485 60 37.4406V46H49.9811C49.9936 46.165 50 46.3318 50 46.5C50 50.0899 47.0899 53 43.5 53C39.9101 53 37 50.0899 37 46.5C37 46.3318 37.0064 46.165 37.0189 46H21.9811C21.9936 46.165 22 46.3318 22 46.5C22 50.0899 19.0899 53 15.5 53C11.9101 53 9 50.0899 9 46.5C9 46.3318 9.00639 46.165 9.01894 46H4V40H6V11ZM10.0218 43C11.1769 41.1958 13.1988 40 15.5 40C17.8012 40 19.8231 41.1958 20.9782 43H38.0218C38.7322 41.8904 39.7705 41.0109 41 40.4982V14H9V43H10.0218ZM57 43H48.9782C47.9076 41.3277 46.0922 40.1781 44 40.0189V27H48.5V37.5H57V43ZM51.5 34.5V27H53.9032L56.5 34.5H51.5ZM23 20H11V23H23V20ZM17 26H11V29H17V26ZM43.5 50C45.433 50 47 48.433 47 46.5C47 44.567 45.433 43 43.5 43C41.567 43 40 44.567 40 46.5C40 48.433 41.567 50 43.5 50ZM19 46.5C19 48.433 17.433 50 15.5 50C13.567 50 12 48.433 12 46.5C12 44.567 13.567 43 15.5 43C17.433 43 19 44.567 19 46.5Z" fill="black"/>
</svg>
