<svg width="64" height="64" viewBox="0 0 64 64" fill="none" xmlns="http://www.w3.org/2000/svg">
<path fill-rule="evenodd" clip-rule="evenodd" d="M53.6678 23.516L57.7348 19.449C59.0366 18.1472 59.0366 16.0367 57.7348 14.7349L48.3067 5.30683C47.005 4.00508 44.8944 4.00509 43.5927 5.30683L39.5257 9.37384C39.4568 9.36033 39.3849 9.36124 39.3144 9.3779L26.862 12.3212C26.7108 12.357 26.5848 12.461 26.521 12.6027L7.53959 54.8005C7.35097 55.2198 7.78064 55.65 8.20017 55.4618L50.4385 36.5205C50.5805 36.4569 50.6848 36.3307 50.7205 36.1793L53.6638 23.7273C53.6804 23.6568 53.6813 23.5848 53.6678 23.516ZM46.1854 7.42815L55.6135 16.8562C55.7437 16.9864 55.7437 17.1975 55.6135 17.3276L51.8423 21.0989L41.9428 11.1994L45.714 7.42815C45.8442 7.29798 46.0553 7.29798 46.1854 7.42815ZM48.0849 34.2882L16.797 48.3188L31.6945 33.4214L29.5732 31.3L14.7179 46.1553L28.7514 14.9573L38.6476 12.6182L50.4235 24.3941L48.0849 34.2882Z" fill="black"/>
</svg>
