<svg width="64" height="64" viewBox="0 0 64 64" fill="none" xmlns="http://www.w3.org/2000/svg">
<path d="M33.5 23H30.5V32H29V38H35V36.5H48V33.5H35V32H33.5V23Z" fill="black"/>
<path fill-rule="evenodd" clip-rule="evenodd" d="M57 35C57 48.8071 45.8071 60 32 60C18.1929 60 7 48.8071 7 35C7 21.1929 18.1929 10 32 10C45.8071 10 57 21.1929 57 35ZM54 35C54 47.1503 44.1503 57 32 57C19.8497 57 10 47.1503 10 35C10 22.8497 19.8497 13 32 13C44.1503 13 54 22.8497 54 35Z" fill="black"/>
<path d="M25 4H39V7H33.5V8.66666H30.5V7H25V4Z" fill="black"/>
<path d="M16.364 13.1213L14.2426 11L10 15.2426L12.1213 17.364L16.364 13.1213Z" fill="black"/>
</svg>
