<svg width="64" height="64" viewBox="0 0 64 64" fill="none" xmlns="http://www.w3.org/2000/svg">
<path fill-rule="evenodd" clip-rule="evenodd" d="M10 29V17H22V29H10ZM13 20H19V26H13V20Z" fill="black"/>
<path d="M26 18H45V21H26V18Z" fill="black"/>
<path d="M26 24H45V27H26V24Z" fill="black"/>
<path d="M55.1213 37.5L46 46.6213L40.8787 41.5L43 39.3787L46 42.3787L53 35.3787L55.1213 37.5Z" fill="black"/>
<path fill-rule="evenodd" clip-rule="evenodd" d="M4 43H36.1659C37.1181 48.6754 42.054 53 48 53C54.6274 53 60 47.6274 60 41C60 36.157 57.1311 31.9841 53 30.0881V11H4V43ZM50 29.1659V14H7V34H38.2521C40.4305 30.9719 43.9849 29 48 29C48.6814 29 49.3496 29.0568 50 29.1659ZM36.6828 37H7V40H36.0411C36.1272 38.9564 36.3468 37.9507 36.6828 37ZM48 50C52.9706 50 57 45.9706 57 41C57 36.0294 52.9706 32 48 32C43.0294 32 39 36.0294 39 41C39 45.9706 43.0294 50 48 50Z" fill="black"/>
</svg>
