<svg width="19" height="20" viewBox="0 0 19 20" fill="none" xmlns="http://www.w3.org/2000/svg">
<path d="M9.5026 0.833984C4.4426 0.833984 0.335938 4.94065 0.335938 10.0007C0.335938 15.0607 4.4426 19.1673 9.5026 19.1673C14.5626 19.1673 18.6693 15.0607 18.6693 10.0007C18.6693 4.94065 14.5626 0.833984 9.5026 0.833984ZM9.5026 3.58398C11.0243 3.58398 12.2526 4.81232 12.2526 6.33398C12.2526 7.85565 11.0243 9.08398 9.5026 9.08398C7.98094 9.08398 6.7526 7.85565 6.7526 6.33398C6.7526 4.81232 7.98094 3.58398 9.5026 3.58398ZM9.5026 16.6007C7.21094 16.6007 5.1851 15.4273 4.0026 13.649C4.0301 11.8248 7.66927 10.8257 9.5026 10.8257C11.3268 10.8257 14.9751 11.8248 15.0026 13.649C13.8201 15.4273 11.7943 16.6007 9.5026 16.6007Z" fill="#ADADAD"/>
</svg>
