<svg width="16" height="16" viewBox="0 0 16 16" fill="none" xmlns="http://www.w3.org/2000/svg">
<g clip-path="url(#clip0_11553_447)">
<path fill-rule="evenodd" clip-rule="evenodd" d="M10.5 5.5C10.5 6.88071 9.38071 8 8 8C6.61929 8 5.5 6.88071 5.5 5.5C5.5 4.11929 6.61929 3 8 3C9.38071 3 10.5 4.11929 10.5 5.5ZM9.5 5.5C9.5 6.32843 8.82843 7 8 7C7.17157 7 6.5 6.32843 6.5 5.5C6.5 4.67157 7.17157 4 8 4C8.82843 4 9.5 4.67157 9.5 5.5Z" fill="black"/>
<path d="M5.375 10C4.75 10 4.5 10.75 4.5 11.0769V12.5C4.5 12.75 4.25 13 4 13C3.75 13 3.5 12.75 3.5 12.5V11.0769C3.5 10.0148 4.33947 9 5.375 9H10.625C11.6605 9 12.5 10.0148 12.5 11.0769V12.5C12.5 12.75 12.25 13 12 13C11.75 13 11.5 12.75 11.5 12.5V11.0769C11.5 10.75 11.2463 10 10.625 10H5.375Z" fill="black"/>
</g>
<defs>
<clipPath id="clip0_11553_447">
<rect width="16" height="16" fill="white"/>
</clipPath>
</defs>
</svg>
