<svg width="24" height="25" viewBox="0 0 24 25" fill="none" xmlns="http://www.w3.org/2000/svg">
<mask id="mask0_3431_334633" style="mask-type:alpha" maskUnits="userSpaceOnUse" x="0" y="0" width="24" height="25">
<rect y="0.625" width="24" height="24" fill="#D9D9D9"/>
</mask>
<g mask="url(#mask0_3431_334633)">
<path d="M19.95 21.625C17.8667 21.625 15.8083 21.1708 13.775 20.2625C11.7417 19.3542 9.89167 18.0667 8.225 16.4C6.55833 14.7333 5.27083 12.8833 4.3625 10.85C3.45417 8.81667 3 6.75833 3 4.675C3 4.375 3.1 4.125 3.3 3.925C3.5 3.725 3.75 3.625 4.05 3.625H8.1C8.33333 3.625 8.54167 3.70417 8.725 3.8625C8.90833 4.02083 9.01667 4.20833 9.05 4.425L9.7 7.925C9.73333 8.19167 9.725 8.41667 9.675 8.6C9.625 8.78333 9.53333 8.94167 9.4 9.075L6.975 11.525C7.30833 12.1417 7.70417 12.7375 8.1625 13.3125C8.62083 13.8875 9.125 14.4417 9.675 14.975C10.1917 15.4917 10.7333 15.9708 11.3 16.4125C11.8667 16.8542 12.4667 17.2583 13.1 17.625L15.45 15.275C15.6 15.125 15.7958 15.0125 16.0375 14.9375C16.2792 14.8625 16.5167 14.8417 16.75 14.875L20.2 15.575C20.4333 15.6417 20.625 15.7625 20.775 15.9375C20.925 16.1125 21 16.3083 21 16.525V20.575C21 20.875 20.9 21.125 20.7 21.325C20.5 21.525 20.25 21.625 19.95 21.625ZM6.025 9.625L7.675 7.975L7.25 5.625H5.025C5.10833 6.30833 5.225 6.98333 5.375 7.65C5.525 8.31667 5.74167 8.975 6.025 9.625ZM14.975 18.575C15.625 18.8583 16.2875 19.0833 16.9625 19.25C17.6375 19.4167 18.3167 19.525 19 19.575V17.375L16.65 16.9L14.975 18.575Z" fill="#1C1B1F"/>
</g>
</svg>
