<svg width="24" height="25" viewBox="0 0 24 25" fill="none" xmlns="http://www.w3.org/2000/svg">
<mask id="mask0_3431_334635" style="mask-type:alpha" maskUnits="userSpaceOnUse" x="0" y="0" width="24" height="25">
<rect y="0.625" width="24" height="24" fill="#D9D9D9"/>
</mask>
<g mask="url(#mask0_3431_334635)">
<path d="M2 20.625V18.625H12V20.625H2ZM5 17.625C4.45 17.625 3.97917 17.4292 3.5875 17.0375C3.19583 16.6458 3 16.175 3 15.625V6.625C3 6.075 3.19583 5.60417 3.5875 5.2125C3.97917 4.82083 4.45 4.625 5 4.625H19C19.55 4.625 20.0208 4.82083 20.4125 5.2125C20.8042 5.60417 21 6.075 21 6.625H5V15.625H12V17.625H5ZM20 18.625V10.625H16V18.625H20ZM15.5 20.625C15.0833 20.625 14.7292 20.4792 14.4375 20.1875C14.1458 19.8958 14 19.5417 14 19.125V10.125C14 9.70833 14.1458 9.35417 14.4375 9.0625C14.7292 8.77083 15.0833 8.625 15.5 8.625H20.5C20.9167 8.625 21.2708 8.77083 21.5625 9.0625C21.8542 9.35417 22 9.70833 22 10.125V19.125C22 19.5417 21.8542 19.8958 21.5625 20.1875C21.2708 20.4792 20.9167 20.625 20.5 20.625H15.5ZM18 13.125C18.2167 13.125 18.3958 13.05 18.5375 12.9C18.6792 12.75 18.75 12.575 18.75 12.375C18.75 12.1583 18.6792 11.9792 18.5375 11.8375C18.3958 11.6958 18.2167 11.625 18 11.625C17.8 11.625 17.625 11.6958 17.475 11.8375C17.325 11.9792 17.25 12.1583 17.25 12.375C17.25 12.575 17.325 12.75 17.475 12.9C17.625 13.05 17.8 13.125 18 13.125Z" fill="#1C1B1F"/>
</g>
</svg>
