<svg width="24" height="25" viewBox="0 0 24 25" fill="none" xmlns="http://www.w3.org/2000/svg">
<mask id="mask0_3431_334634" style="mask-type:alpha" maskUnits="userSpaceOnUse" x="0" y="0" width="24" height="25">
<rect y="0.625" width="24" height="24" fill="#D9D9D9"/>
</mask>
<g mask="url(#mask0_3431_334634)">
<path d="M12 12.625C10.9 12.625 9.95833 12.2333 9.175 11.45C8.39167 10.6667 8 9.725 8 8.625C8 7.525 8.39167 6.58333 9.175 5.8C9.95833 5.01667 10.9 4.625 12 4.625C13.1 4.625 14.0417 5.01667 14.825 5.8C15.6083 6.58333 16 7.525 16 8.625C16 9.725 15.6083 10.6667 14.825 11.45C14.0417 12.2333 13.1 12.625 12 12.625ZM4 20.625V17.825C4 17.2583 4.14583 16.7375 4.4375 16.2625C4.72917 15.7875 5.11667 15.425 5.6 15.175C6.63333 14.6583 7.68333 14.2708 8.75 14.0125C9.81667 13.7542 10.9 13.625 12 13.625C13.1 13.625 14.1833 13.7542 15.25 14.0125C16.3167 14.2708 17.3667 14.6583 18.4 15.175C18.8833 15.425 19.2708 15.7875 19.5625 16.2625C19.8542 16.7375 20 17.2583 20 17.825V20.625H4ZM6 18.625H18V17.825C18 17.6417 17.9542 17.475 17.8625 17.325C17.7708 17.175 17.65 17.0583 17.5 16.975C16.6 16.525 15.6917 16.1875 14.775 15.9625C13.8583 15.7375 12.9333 15.625 12 15.625C11.0667 15.625 10.1417 15.7375 9.225 15.9625C8.30833 16.1875 7.4 16.525 6.5 16.975C6.35 17.0583 6.22917 17.175 6.1375 17.325C6.04583 17.475 6 17.6417 6 17.825V18.625ZM12 10.625C12.55 10.625 13.0208 10.4292 13.4125 10.0375C13.8042 9.64583 14 9.175 14 8.625C14 8.075 13.8042 7.60417 13.4125 7.2125C13.0208 6.82083 12.55 6.625 12 6.625C11.45 6.625 10.9792 6.82083 10.5875 7.2125C10.1958 7.60417 10 8.075 10 8.625C10 9.175 10.1958 9.64583 10.5875 10.0375C10.9792 10.4292 11.45 10.625 12 10.625Z" fill="#1C1B1F"/>
</g>
</svg>
