<svg width="24" height="24" viewBox="0 0 24 24" fill="none" xmlns="http://www.w3.org/2000/svg">
<path fill-rule="evenodd" clip-rule="evenodd" d="M6.95629 8C6.95629 5.23858 9.21444 3 12 3C14.7856 3 17.0437 5.23858 17.0437 8H20.9981L21.9929 19.8339C22.0909 21 21.1627 22 19.9824 22H4.01762C2.83731 22 1.90909 20.9999 2.00711 19.8339L3.00189 8H6.95629ZM6.95629 10V12H8.97377V10H15.0262V12H17.0437V10H19.1418L19.9824 20H4.01762L4.85824 10H6.95629ZM15.0262 8H8.97377C8.97377 6.34315 10.3287 5 12 5C13.6713 5 15.0262 6.34315 15.0262 8Z" fill="black"/>
</svg>
