<svg xmlns="http://www.w3.org/2000/svg" width="15" height="15" fill="none">
  <path fill="#fff" d="M10.5 8.25H8.25A.752.752 0 0 0 7.5 9v2.25c0 .412.338.75.75.75h2.25c.412 0 .75-.338.75-.75V9a.752.752 0 0 0-.75-.75Zm0-7.5v.75h-6V.75A.752.752 0 0 0 3.75 0 .752.752 0 0 0 3 .75v.75h-.75C1.417 1.5.757 2.175.757 3L.75 13.5a1.5 1.5 0 0 0 1.5 1.5h10.5c.825 0 1.5-.675 1.5-1.5V3c0-.825-.675-1.5-1.5-1.5H12V.75a.752.752 0 0 0-.75-.75.752.752 0 0 0-.75.75ZM12 13.5H3a.752.752 0 0 1-.75-.75v-7.5h10.5v7.5c0 .412-.338.75-.75.75Z"/>
</svg>