<svg width="24" height="24" viewBox="0 0 24 24" fill="none" xmlns="http://www.w3.org/2000/svg">
<path fill-rule="evenodd" clip-rule="evenodd" d="M9 4.99901L9 3H7L7 5H3H2V6V19C2 20.1046 2.89543 21 4 21H20C21.1046 21 22 20.1046 22 19V6V5H21H17V3H15V5H9C9 4.99967 9 4.99934 9 4.99901ZM7 7V7.52941C7 7.78931 7.21069 8 7.47059 8H8.52941C8.78931 8 9 7.78931 9 7.52941V7H15V7.52941C15 7.78931 15.2107 8 15.4706 8H16.5294C16.7893 8 17 7.78931 17 7.52941V7H20V10H4V7H7ZM4 12H20V19H4V12ZM9 17H15V15H9V17Z" fill="black"/>
</svg>
