<svg width="19" height="19" viewBox="0 0 19 19" fill="none" xmlns="http://www.w3.org/2000/svg">
<path d="M9.90625 1.59473C14.089 1.80685 17.4149 5.26557 17.415 9.50098L17.4053 9.9082C17.1932 14.091 13.7344 17.4168 9.49902 17.417L9.09082 17.4072C5.04311 17.2018 1.79805 13.956 1.59277 9.9082L1.58203 9.50098C1.58221 5.12887 5.12688 1.58398 9.49902 1.58398L9.90625 1.59473ZM9.49902 3.08398C5.95531 3.08398 3.08221 5.9573 3.08203 9.50098C3.08221 13.0447 5.95531 15.917 9.49902 15.917C13.0426 15.9168 15.9149 13.0445 15.915 9.50098C15.9149 5.95741 13.0426 3.08417 9.49902 3.08398ZM10.2891 9.95801L6.71582 13.46L5.53906 12.3066L8.62402 9.2832V5.54297H10.2891V9.95801Z" fill="black"/>
</svg>
