<svg width="32" height="32" viewBox="0 0 32 32" fill="none" xmlns="http://www.w3.org/2000/svg">
<path fill-rule="evenodd" clip-rule="evenodd" d="M8.28261 7.93223C8.72892 7.48592 9.44554 7.47892 9.88322 7.9166L24.1481 22.1814C24.5857 22.6191 24.5787 23.3357 24.1324 23.782C23.6861 24.2284 22.9695 24.2354 22.5318 23.7977L8.26698 9.53285C7.8293 9.09517 7.8363 8.37855 8.28261 7.93223Z" fill="#000"/>
<path fill-rule="evenodd" clip-rule="evenodd" d="M24.1324 7.93222C24.5787 8.37854 24.5857 9.09515 24.148 9.53283L9.8832 23.7977C9.44552 24.2353 8.7289 24.2284 8.28259 23.782C7.83627 23.3357 7.82928 22.6191 8.26696 22.1814L22.5318 7.91659C22.9695 7.47891 23.6861 7.48591 24.1324 7.93222Z" fill="#000"/>
</svg>
