<svg width="24" height="24" viewBox="0 0 24 24" fill="none" xmlns="http://www.w3.org/2000/svg">
<path d="M11.9998 6.28866L11.2945 6.99756C11.6845 7.38563 12.3148 7.38571 12.7049 6.99774L11.9998 6.28866ZM11.087 5.3805L10.3817 6.08939V6.08939L11.087 5.3805ZM4.38751 5.3805L5.09282 6.08939V6.08939L4.38751 5.3805ZM4.38751 12.0461L5.14564 11.394C5.13926 11.3866 5.13278 11.3793 5.12619 11.3721L4.38751 12.0461ZM5.86364 13.7623L5.1055 14.4144C5.12004 14.4313 5.13513 14.4477 5.15076 14.4636L5.86364 13.7623ZM12 20L11.2871 20.7013L12 21.4259L12.7129 20.7013L12 20ZM12.913 5.3805L13.6181 6.08957L13.6183 6.08939L12.913 5.3805ZM19.6125 5.3805L18.9072 6.08939L18.9072 6.08939L19.6125 5.3805ZM19.6125 12.0461L18.8738 11.3721C18.8672 11.3793 18.8607 11.3866 18.8544 11.394L19.6125 12.0461ZM18.1364 13.7623L18.8492 14.4636C18.8649 14.4477 18.88 14.4313 18.8945 14.4144L18.1364 13.7623ZM12.7051 5.57977L11.7923 4.6716L10.3817 6.08939L11.2945 6.99756L12.7051 5.57977ZM11.7923 4.6716C10.716 3.60071 9.25723 3 7.73725 3V5C8.73006 5 9.68119 5.39245 10.3817 6.08939L11.7923 4.6716ZM7.73725 3C6.21727 3 4.75852 3.60071 3.68219 4.6716L5.09282 6.08939C5.79331 5.39245 6.74444 5 7.73725 5V3ZM3.68219 4.6716C2.6057 5.74266 2 7.1964 2 8.71331H4C4 7.73012 4.39251 6.78617 5.09282 6.08939L3.68219 4.6716ZM2 8.71331C2 10.2438 2.52447 11.488 3.64883 12.7202L5.12619 11.3721C4.29371 10.4598 4 9.68288 4 8.71331H2ZM3.62937 12.6982L5.1055 14.4144L6.62177 13.1102L5.14564 11.394L3.62937 12.6982ZM5.15076 14.4636L11.2871 20.7013L12.7129 19.2987L6.57651 13.061L5.15076 14.4636ZM12.7049 6.99774L13.6181 6.08957L12.2079 4.67142L11.2946 5.57959L12.7049 6.99774ZM13.6183 6.08939C14.3188 5.39245 15.2699 5 16.2628 5V3C14.7428 3 13.284 3.60071 12.2077 4.6716L13.6183 6.08939ZM16.2628 5C17.2556 5 18.2067 5.39245 18.9072 6.08939L20.3178 4.6716C19.2415 3.60071 17.7827 3 16.2628 3V5ZM18.9072 6.08939C19.6075 6.78617 20 7.73012 20 8.71331H22C22 7.1964 21.3943 5.74266 20.3178 4.6716L18.9072 6.08939ZM20 8.71331C20 9.68288 19.7063 10.4598 18.8738 11.3721L20.3512 12.7202C21.4755 11.488 22 10.2438 22 8.71331H20ZM18.8544 11.394L17.3782 13.1102L18.8945 14.4144L20.3706 12.6982L18.8544 11.394ZM17.4235 13.061L11.2871 19.2987L12.7129 20.7013L18.8492 14.4636L17.4235 13.061Z" fill="black"/>
</svg>
