<svg xmlns="http://www.w3.org/2000/svg" width="17" height="16" viewBox="0 0 17 16" fill="none">
<g clip-path="url(#clip0_4684_10086)">
<path fill-rule="evenodd" clip-rule="evenodd" d="M8.01105 2.72621C8.47457 3.07782 8.75 3.40028 8.75 3.40028C8.75 3.40028 9.02543 3.07782 9.48895 2.7262C10.4815 1.97325 12.3366 1.0866 14.1964 2.94642C16.9247 5.67474 14.5268 8.26935 14.5268 8.26935L9.11666 14.1045C8.94498 14.2897 8.85914 14.3823 8.75001 14.3823C8.64088 14.3823 8.55503 14.2897 8.38335 14.1045L2.97321 8.26934C2.97321 8.26934 0.575261 5.67474 3.30358 2.94642C5.1634 1.0866 7.01847 1.97325 8.01105 2.72621ZM8.75 4.93997L7.99181 4.05232L7.99147 4.05193C7.98962 4.04983 7.98534 4.04501 7.97873 4.03773C7.96548 4.02315 7.94299 3.99888 7.91192 3.96702C7.84952 3.90303 7.75405 3.80997 7.63079 3.70402C7.37974 3.48821 7.03679 3.23907 6.64308 3.06373C6.25204 2.88958 5.84559 2.80304 5.43808 2.85751C5.04368 2.91023 4.55767 3.10654 4.01069 3.65353C2.91554 4.74868 2.90746 5.70677 3.08283 6.37833C3.17875 6.74564 3.34121 7.05907 3.48448 7.28389C3.55505 7.39464 3.61796 7.47916 3.66027 7.53274C3.68132 7.55939 3.69696 7.57799 3.70549 7.58792L3.71155 7.59487L8.75001 13.0292L13.7885 7.59489L13.7945 7.58793C13.803 7.578 13.8187 7.5594 13.8397 7.53275C13.882 7.47917 13.945 7.39464 14.0155 7.2839C14.1588 7.05908 14.3213 6.74565 14.4172 6.37834C14.5925 5.70677 14.5845 4.74868 13.4893 3.65352C12.9423 3.10654 12.4563 2.91022 12.0619 2.85751C11.6544 2.80304 11.248 2.88958 10.8569 3.06373C10.4632 3.23907 10.1203 3.48821 9.86921 3.70401C9.74596 3.80997 9.65048 3.90303 9.58808 3.96702C9.55701 3.99888 9.53452 4.02315 9.52127 4.03773C9.51783 4.04152 9.51501 4.04465 9.51285 4.04707C9.51086 4.0493 9.50942 4.05092 9.50854 4.05193L8.75 4.93997Z" fill="black"/>
</g>
<defs>
<clipPath id="clip0_4684_10086">
<rect width="16" height="16" fill="white" transform="translate(0.75)"/>
</clipPath>
</defs>
</svg>