<svg width="24" height="24" viewBox="0 0 24 24" fill="none" xmlns="http://www.w3.org/2000/svg">
<path fill-rule="evenodd" clip-rule="evenodd" d="M20.4142 8.58303L13.4149 1.58583L10.9752 4.02593C10.5207 4.4805 10.4215 5.1558 10.6776 5.70673L5.70616 10.679C5.15525 10.4229 4.47998 10.5222 4.02549 10.9768L1.58569 13.417L8.585 20.4142L11.0247 17.9741C11.4792 17.5195 11.5784 16.8442 11.3223 16.2933L11.9176 15.6979C11.9442 15.7274 11.9719 15.7563 12.0006 15.7846L17.3348 21.0329C18.1049 21.7906 19.3376 21.7998 20.1189 21.0535L20.9563 20.2536C21.7637 19.4824 21.7832 18.1993 20.9996 17.4039L15.7087 12.0329C15.6876 12.0115 15.6662 11.9907 15.6444 11.9704L16.2938 11.321C16.8447 11.5771 17.5199 11.4778 17.9744 11.0232L20.4142 8.58303ZM19.5748 18.8074L14.2839 13.4364L13.4033 14.3589L18.7375 19.6073L19.5748 18.8074Z" fill="black"/>
</svg>
