<svg width="24" height="24" viewBox="0 0 24 24" fill="none" xmlns="http://www.w3.org/2000/svg">
<path fill-rule="evenodd" clip-rule="evenodd" d="M3.58739 2L2.18772 3.42645L5.5589 6.86214C5.2398 7.17424 4.94546 7.49201 4.67639 7.80482C3.86897 8.7435 3.25348 9.67759 2.84 10.3754C2.63263 10.7253 2.47444 11.0186 2.36685 11.2271C2.31302 11.3314 2.27176 11.4146 2.24324 11.4734C2.22898 11.5028 2.21789 11.526 2.21001 11.5427L2.20059 11.5628L2.19768 11.5691L2.19668 11.5713C2.19652 11.5716 2.19598 11.5728 3.09255 12L2.19598 11.5728L2 12L2.19668 12.4287L2.19768 12.4309L2.20059 12.4372L2.21001 12.4573C2.21789 12.474 2.22898 12.4972 2.24324 12.5266C2.27176 12.5854 2.31302 12.6686 2.36685 12.7729C2.47444 12.9814 2.63263 13.2747 2.84 13.6246C3.25348 14.3224 3.86897 15.2565 4.67639 16.1952C6.26795 18.0455 8.74369 20.0692 12 20.0692C13.91 20.0692 15.5515 19.3729 16.9035 18.4238L20.4126 22L21.8123 20.5735L10.645 9.19264C10.6313 9.1768 10.617 9.16129 10.6022 9.14614C10.587 9.13067 10.5715 9.1158 10.5556 9.10154L3.58739 2ZM15.475 16.9679L14.0109 15.4759C13.4215 15.8306 12.7335 16.0346 12 16.0346C9.81356 16.0346 8.04112 14.2283 8.04112 12C8.04112 11.2522 8.24133 10.5512 8.58939 9.9506L6.95863 8.28864C6.67857 8.56094 6.41381 8.84521 6.16487 9.13462C5.45398 9.96108 4.90542 10.7921 4.53443 11.4182C4.40093 11.6435 4.29127 11.8408 4.2061 12C4.29127 12.1592 4.40093 12.3565 4.53443 12.5818C4.90542 13.2079 5.45398 14.0389 6.16487 14.8654C7.60994 16.5454 9.58793 18.0519 12 18.0519C13.2869 18.0519 14.4502 17.6231 15.475 16.9679ZM10.0206 12C10.0206 11.8191 10.0438 11.6439 10.0874 11.4773L12.5129 13.9492C12.3494 13.9936 12.1776 14.0173 12 14.0173C10.9068 14.0173 10.0206 13.1141 10.0206 12Z" fill="black"/>
<path d="M17.9996 14.6707C18.6311 13.9096 19.1237 13.1587 19.4656 12.5818C19.5991 12.3565 19.7087 12.1592 19.7939 12C19.7087 11.8408 19.5991 11.6435 19.4656 11.4182C19.0946 10.7921 18.546 9.96108 17.8351 9.13462C16.3901 7.45462 14.4121 5.94808 12 5.94808C11.2366 5.94808 10.5168 6.09897 9.8435 6.35849L8.34098 4.82722C9.41991 4.2827 10.6421 3.93078 12 3.93078C15.2563 3.93078 17.7321 5.95452 19.3236 7.80482C20.131 8.7435 20.7465 9.67759 21.16 10.3754C21.3674 10.7253 21.5256 11.0186 21.6331 11.2271C21.687 11.3314 21.7282 11.4146 21.7568 11.4734C21.771 11.5028 21.7821 11.526 21.79 11.5427L21.7994 11.5628L21.8023 11.5691L21.8033 11.5713C21.8035 11.5716 21.804 11.5728 20.9075 12L21.804 11.5728L22 12L21.8037 12.4279L21.8023 12.4309L21.7994 12.4372L21.79 12.4573C21.7821 12.474 21.771 12.4972 21.7568 12.5266C21.7282 12.5854 21.687 12.6686 21.6331 12.7729C21.5256 12.9814 21.3674 13.2747 21.16 13.6246C20.7603 14.2992 20.1718 15.1946 19.4036 16.1015L17.9996 14.6707Z" fill="black"/>
</svg>
