<svg width="24" height="24" viewBox="0 0 24 24" fill="none" xmlns="http://www.w3.org/2000/svg">
<path fill-rule="evenodd" clip-rule="evenodd" d="M3.5 2.08582L2.08579 3.50003L5.492 6.90624C5.16957 7.21567 4.87218 7.53071 4.60032 7.84083C3.7845 8.77146 3.16262 9.69754 2.74485 10.3893C2.53532 10.7363 2.37548 11.0271 2.26678 11.2337C2.2124 11.3371 2.1707 11.4197 2.14188 11.4779C2.12747 11.5071 2.11628 11.5301 2.10831 11.5467L2.09879 11.5666L2.09585 11.5728L2.09484 11.575C2.09468 11.5753 2.09413 11.5765 3.00001 12L2.09413 11.5765L1.89612 12L2.09484 12.4251L2.09585 12.4272L2.09879 12.4334L2.10831 12.4534C2.11628 12.4699 2.12747 12.493 2.14188 12.5221C2.1707 12.5804 2.2124 12.6629 2.26678 12.7663C2.37548 12.973 2.53532 13.2638 2.74485 13.6107C3.16262 14.3025 3.7845 15.2286 4.60032 16.1592C6.20841 17.9936 8.70987 20 12 20C13.9299 20 15.5884 19.3097 16.9545 18.3687L20.5 21.9142L21.9142 20.5L10.6309 9.21675C10.6171 9.20105 10.6027 9.18567 10.5877 9.17065C10.5724 9.15531 10.5567 9.14057 10.5406 9.12644L3.5 2.08582ZM15.5111 16.9253L14.0318 15.4461C13.4363 15.7978 12.7411 16 12 16C9.79086 16 8 14.2092 8 12C8 11.2586 8.20229 10.5636 8.55397 9.96821L6.90627 8.32051C6.62329 8.59047 6.35579 8.8723 6.10426 9.15922C5.38598 9.9786 4.83173 10.8025 4.45688 11.4232C4.32199 11.6466 4.21119 11.8422 4.12514 12C4.21119 12.1578 4.32199 12.3535 4.45688 12.5768C4.83173 13.1975 5.38598 14.0215 6.10426 14.8408C7.56435 16.5064 9.56288 18 12 18C13.3003 18 14.4757 17.5749 15.5111 16.9253ZM10 12C10 11.8207 10.0235 11.647 10.0676 11.4818L12.5182 13.9325C12.3531 13.9766 12.1794 14 12 14C10.8954 14 10 13.1046 10 12Z" fill="black"/>
<path d="M18.062 14.6478C18.7 13.8933 19.1977 13.1488 19.5431 12.5768C19.678 12.3535 19.7888 12.1578 19.8749 12C19.7888 11.8422 19.678 11.6466 19.5431 11.4232C19.1683 10.8025 18.614 9.9786 17.8958 9.15922C16.4357 7.49364 14.4371 6.00003 12 6.00003C11.2287 6.00003 10.5014 6.14962 9.82111 6.40691L8.30298 4.88878C9.39311 4.34894 10.628 4.00003 12 4.00003C15.2902 4.00003 17.7916 6.00641 19.3997 7.84083C20.2155 8.77146 20.8374 9.69754 21.2552 10.3893C21.4647 10.7363 21.6245 11.0271 21.7332 11.2337C21.7876 11.3371 21.8293 11.4197 21.8581 11.4779C21.8726 11.5071 21.8838 11.5301 21.8917 11.5467L21.9012 11.5666L21.9042 11.5728L21.9052 11.575C21.9054 11.5753 21.9059 11.5765 21 12L21.9059 11.5765L22.1039 12L21.9056 12.4242L21.9042 12.4272L21.9012 12.4334L21.8917 12.4534C21.8838 12.4699 21.8726 12.493 21.8581 12.5221C21.8293 12.5804 21.7876 12.6629 21.7332 12.7663C21.6245 12.973 21.4647 13.2638 21.2552 13.6107C20.8513 14.2795 20.2567 15.1672 19.4805 16.0663L18.062 14.6478Z" fill="black"/>
</svg>
