<svg width="24" height="24" viewBox="0 0 24 24" fill="none" xmlns="http://www.w3.org/2000/svg">
<path d="M9 21H3V9.50506C3 9.16984 3.16796 8.85692 3.44733 8.67166L12 3L20.5527 8.67166C20.832 8.85692 21 9.16984 21 9.50506V21H15H9Z" fill="black"/>
<path d="M9 20V13C9 12.4477 9.44772 12 10 12H14C14.5523 12 15 12.4477 15 13V20C15 20.5523 14.5523 21 14 21H10C9.44772 21 9 20.5523 9 20Z" fill="white"/>
<path d="M9 21H3V9.50506C3 9.16984 3.16796 8.85692 3.44733 8.67166L12 3L20.5527 8.67166C20.832 8.85692 21 9.16984 21 9.50506V21H15M9 21H15M9 21V13.2474C9 12.6951 9.44772 12.2474 10 12.2474H14C14.5523 12.2474 15 12.6951 15 13.2474V21M9 13V20C9 20.5523 9.44772 21 10 21H14C14.5523 21 15 20.5523 15 20V13C15 12.4477 14.5523 12 14 12H10C9.44772 12 9 12.4477 9 13Z" stroke="black" stroke-width="2" stroke-linecap="round"/>
</svg>
