<svg width="32" height="32" viewBox="4 4 24 24" fill="none" xmlns="http://www.w3.org/2000/svg">
    <path fill-rule="evenodd" clip-rule="evenodd"
        d="M20.5662 12.2516C16.5122 12.2516 13.236 15.2214 13.236 18.8838C13.2356 19.4501 13.3188 20.0131 13.4824 20.5522C13.2772 20.5741 13.0935 20.5741 12.9089 20.5741C12.0487 20.5741 11.209 20.4432 10.4106 20.2269C10.226 20.1624 10.0423 20.1842 9.87827 20.2923L7.48295 21.8091C7.33958 21.8963 7.17559 21.7446 7.21681 21.5928L7.83065 19.2954C7.85126 19.1437 7.81004 18.9919 7.68727 18.9056C5.9264 17.6051 4.79999 15.6549 4.79999 13.4875C4.79999 9.56433 8.42388 6.39999 12.908 6.39999C16.9011 6.39999 20.2176 8.93545 20.8736 12.2516H20.5662ZM16.7165 11.2983C16.7165 10.6694 16.2254 10.1496 15.6313 10.1496C15.0381 10.1496 14.5461 10.6694 14.5461 11.2983C14.5461 11.9272 15.0372 12.447 15.6313 12.447C16.2254 12.447 16.7165 11.9272 16.7165 11.2983ZM9.09955 11.2983C9.09955 11.9272 9.59062 12.447 10.1847 12.447C10.7995 12.447 11.2699 11.9272 11.2699 11.2983C11.2699 10.6694 10.7789 10.1496 10.1847 10.1496C9.59062 10.1496 9.09955 10.6694 9.09955 11.2983ZM20.4837 12.8805C24.19 12.8805 27.2 15.5677 27.2 18.862C27.2 20.704 26.2788 22.3298 24.8441 23.4348C24.6604 23.5648 24.5986 23.782 24.6398 23.9983L24.9678 25.4068C25.009 25.5368 24.8656 25.6459 24.7635 25.5804L23.1048 24.6271C22.9202 24.5399 22.7159 24.518 22.5313 24.5617C21.8968 24.7571 21.2212 24.8434 20.5043 24.8434C16.798 24.8434 13.7879 22.1562 13.7879 18.862C13.7879 15.5677 16.7774 12.8805 20.4837 12.8805ZM17.5766 17.9179C17.7281 18.0251 17.9062 18.0823 18.0884 18.0823C18.2095 18.0828 18.3295 18.0579 18.4415 18.0091C18.5534 17.9603 18.6552 17.8885 18.7408 17.7978C18.8265 17.7072 18.8943 17.5995 18.9404 17.4809C18.9866 17.3624 19.01 17.2354 19.0096 17.1072C19.0096 16.9143 18.9555 16.7258 18.8543 16.5654C18.7531 16.4051 18.6092 16.2801 18.4409 16.2063C18.2726 16.1325 18.0873 16.1132 17.9086 16.1508C17.7299 16.1884 17.5658 16.2813 17.437 16.4177C17.3081 16.554 17.2204 16.7278 17.1849 16.9169C17.1493 17.1061 17.1676 17.3021 17.2373 17.4803C17.307 17.6585 17.4251 17.8108 17.5766 17.9179ZM22.1019 17.9179C22.2534 18.0251 22.4315 18.0823 22.6137 18.0823C23.1048 18.0823 23.5349 17.6488 23.5349 17.1072C23.5349 16.9143 23.4809 16.7258 23.3797 16.5654C23.2784 16.4051 23.1346 16.2801 22.9662 16.2063C22.7979 16.1325 22.6127 16.1132 22.434 16.1508C22.2553 16.1884 22.0912 16.2813 21.9623 16.4177C21.8335 16.554 21.7458 16.7278 21.7102 16.9169C21.6747 17.1061 21.6929 17.3021 21.7626 17.4803C21.8324 17.6585 21.9504 17.8108 22.1019 17.9179Z"
        fill="#000" />
</svg>