<svg width="24" height="24" viewBox="0 0 24 24" fill="none" xmlns="http://www.w3.org/2000/svg">
    <path
        d="M23.1848 14.5658V23.2H18.4642V15.0456C18.4642 12.967 17.7028 11.6879 16.0277 11.6879C14.9618 11.6879 13.8958 12.3274 13.5913 13.4467C13.439 13.9264 13.439 14.246 13.439 14.7257V23.2H8.71841V8.17019H13.439V10.2489C14.3527 8.64994 15.8754 7.69064 17.7028 7.69064C20.7483 7.69064 23.1848 9.929 23.1848 14.5658ZM3.54098 0.815236C2.17048 0.655345 0.952265 1.77458 0.799988 3.2136V3.37346C0.799988 4.81248 1.86593 5.93168 3.23643 5.93168H3.3887C4.7592 6.09157 5.97742 4.97233 6.12969 3.53331V3.37346C6.12969 1.93444 5.21603 0.815236 3.84553 0.815236C3.69326 0.815236 3.69326 0.815236 3.54098 0.815236ZM1.10454 23.2H5.82514V8.17019H1.10454V23.2Z"
        fill="#000" />
</svg>
    