<svg id="svg" version="1.1" xmlns="http://www.w3.org/2000/svg"
    xmlns:xlink="http://www.w3.org/1999/xlink" width="400" height="400" viewBox="0, 0, 400,400">
    <g>
        <path id="path0"
            d="M173.326 154.900 C 172.639 155.968,172.000 157.309,172.000 157.683 C 172.000 157.898,171.640 158.531,171.200 159.091 C 170.760 159.650,170.400 160.377,170.400 160.705 C 170.400 161.033,169.884 162.404,169.253 163.751 C 166.068 170.556,165.600 171.620,165.600 172.060 C 165.600 172.322,165.361 172.821,165.068 173.169 C 164.775 173.516,164.210 174.700,163.813 175.800 C 163.416 176.900,162.845 178.084,162.545 178.431 C 162.245 178.779,162.000 179.324,162.000 179.642 C 162.000 179.961,161.763 180.577,161.473 181.011 C 156.950 187.781,159.431 192.779,167.320 192.794 C 171.657 192.802,173.367 193.707,172.443 195.505 C 172.247 195.887,171.888 196.650,171.646 197.200 C 171.404 197.750,171.042 198.470,170.842 198.800 C 170.641 199.130,170.244 200.186,169.959 201.147 C 169.674 202.108,169.117 203.307,168.720 203.810 C 168.324 204.314,168.000 204.950,168.000 205.224 C 168.000 205.498,167.460 206.865,166.800 208.262 C 166.140 209.659,165.600 211.012,165.600 211.270 C 165.600 211.527,165.321 212.045,164.981 212.421 C 163.818 213.706,163.737 218.419,164.857 219.600 C 166.868 221.719,167.356 221.800,178.080 221.800 L 188.041 221.800 188.758 220.400 C 189.152 219.630,189.792 218.280,190.181 217.400 C 190.570 216.520,191.049 215.530,191.247 215.200 C 191.444 214.870,191.706 214.330,191.830 214.000 C 191.953 213.670,192.402 212.630,192.827 211.689 C 193.959 209.185,193.978 209.201,189.700 209.194 C 184.196 209.186,182.469 207.824,183.915 204.631 C 184.122 204.174,184.692 202.900,185.181 201.800 C 185.670 200.700,186.311 199.260,186.604 198.600 C 186.898 197.940,187.692 196.227,188.369 194.793 C 189.046 193.360,189.600 192.063,189.600 191.911 C 189.600 191.760,190.165 190.413,190.856 188.918 C 193.389 183.435,193.600 182.939,193.600 182.474 C 193.600 182.213,193.736 182.000,193.902 182.000 C 194.168 182.000,194.748 180.611,195.238 178.800 C 195.376 178.289,194.360 178.170,188.360 178.000 C 178.329 177.715,178.412 177.869,183.040 168.194 C 183.568 167.091,184.000 166.045,184.000 165.871 C 184.000 165.696,184.696 164.078,185.546 162.276 C 187.497 158.143,188.240 156.436,188.582 155.300 L 188.854 154.400 181.251 154.400 C 175.606 154.400,173.564 154.529,173.326 154.900 M264.201 154.891 C 264.102 155.171,263.971 156.480,263.910 157.800 L 263.800 160.200 259.200 160.298 C 256.670 160.352,254.191 160.492,253.691 160.608 L 252.783 160.820 252.891 168.510 L 253.000 176.200 257.800 176.425 C 264.599 176.744,264.000 175.939,264.000 184.763 C 264.000 194.070,264.936 193.200,254.920 193.200 L 246.800 193.200 246.800 200.720 C 246.800 210.054,245.930 209.200,255.431 209.200 C 261.354 209.200,263.203 209.322,263.547 209.736 C 263.855 210.107,264.024 215.680,264.096 227.836 L 264.200 245.400 272.000 245.400 L 279.800 245.400 279.901 227.800 C 279.993 211.821,280.065 210.154,280.678 209.700 C 281.187 209.323,284.729 209.200,295.098 209.200 L 308.843 209.200 310.249 210.300 C 312.699 212.216,312.800 212.672,312.800 221.813 L 312.800 230.067 311.393 231.433 L 309.985 232.800 303.193 232.800 C 296.191 232.800,295.338 233.020,297.000 234.400 C 297.330 234.674,297.600 235.145,297.600 235.448 C 297.600 235.955,298.497 238.069,301.017 243.500 L 301.991 245.600 309.409 245.600 C 315.097 245.600,317.160 245.460,318.262 245.000 C 319.051 244.670,319.956 244.400,320.272 244.400 C 321.655 244.400,325.827 240.389,327.125 237.812 C 329.503 233.090,329.463 206.950,327.070 202.000 C 324.565 196.817,320.186 194.298,311.875 193.257 C 308.865 192.880,308.950 193.104,308.686 184.868 C 308.462 177.881,307.986 173.943,307.129 172.000 C 305.910 169.236,305.247 168.206,303.530 166.405 C 299.775 162.468,295.014 160.840,286.309 160.519 L 280.418 160.302 280.211 159.051 C 280.098 158.363,279.959 157.080,279.903 156.200 L 279.800 154.600 272.091 154.491 C 266.136 154.407,264.340 154.498,264.201 154.891 M103.595 160.300 C 103.592 162.885,103.480 179.850,103.346 198.000 C 103.058 237.042,103.808 232.800,97.197 232.800 C 92.664 232.800,92.247 232.908,92.795 233.943 C 92.986 234.304,93.531 235.500,94.006 236.600 C 94.481 237.700,95.192 239.230,95.586 240.000 C 95.980 240.770,96.511 242.053,96.766 242.852 C 97.622 245.529,98.002 245.660,104.455 245.498 C 114.258 245.251,117.507 242.614,119.035 233.664 C 119.560 230.582,119.732 158.305,119.220 155.700 C 119.209 155.645,115.690 155.600,111.400 155.600 L 103.600 155.600 103.595 160.300 M203.280 160.880 C 202.773 161.387,202.564 174.520,203.043 175.767 C 203.243 176.288,204.022 176.400,207.457 176.400 C 210.623 176.400,211.866 176.556,212.614 177.046 L 213.600 177.692 213.600 203.170 C 213.600 224.524,213.508 228.773,213.033 229.424 C 212.517 230.131,211.799 230.218,204.966 230.400 L 197.465 230.600 197.080 231.800 C 196.869 232.460,196.470 233.270,196.195 233.600 C 195.920 233.930,195.570 234.608,195.418 235.106 C 194.924 236.727,192.407 241.948,191.998 242.201 C 191.779 242.336,191.600 242.876,191.600 243.400 C 191.600 243.924,191.420 244.464,191.200 244.600 C 189.741 245.502,192.682 245.599,218.700 245.503 L 246.600 245.400 246.600 238.000 L 246.600 230.600 238.667 230.400 C 231.405 230.217,230.686 230.134,230.167 229.424 C 229.692 228.773,229.600 224.548,229.600 203.339 L 229.600 178.031 230.475 177.216 C 231.248 176.495,231.875 176.400,235.833 176.400 C 241.249 176.400,240.800 177.123,240.800 168.400 C 240.800 164.696,240.691 161.381,240.557 161.033 C 240.239 160.203,204.105 160.055,203.280 160.880 M317.760 161.358 C 314.200 163.015,312.691 166.386,312.884 172.252 L 313.000 175.800 317.000 175.923 C 325.210 176.175,329.906 172.898,328.646 167.795 C 328.511 167.248,328.287 166.305,328.150 165.700 C 327.266 161.811,321.744 159.503,317.760 161.358 M290.200 176.800 C 290.336 177.020,290.792 177.200,291.213 177.200 C 293.209 177.200,294.377 191.219,292.500 192.643 C 291.324 193.536,280.941 193.413,280.457 192.500 C 279.632 190.942,279.664 178.426,280.496 177.369 C 281.317 176.325,289.606 175.840,290.200 176.800 M75.003 178.500 C 74.721 179.322,73.967 189.300,73.605 197.000 C 73.419 200.960,72.982 205.426,72.634 206.925 C 72.285 208.423,72.000 211.158,72.000 213.001 C 72.000 214.845,71.820 216.464,71.600 216.600 C 71.112 216.902,71.071 219.747,71.541 220.705 C 71.728 221.087,72.249 222.210,72.699 223.200 C 73.148 224.190,74.075 226.181,74.758 227.624 C 75.441 229.067,76.000 230.479,76.000 230.761 C 76.000 231.043,76.340 231.706,76.755 232.233 C 77.170 232.761,77.749 234.005,78.042 234.997 C 78.335 235.988,78.687 236.800,78.825 236.800 C 79.538 236.800,81.857 233.085,83.195 229.800 C 83.464 229.140,83.936 228.060,84.244 227.400 C 84.812 226.183,85.955 222.227,86.267 220.400 C 86.361 219.850,86.614 218.770,86.829 218.000 C 87.588 215.281,88.482 207.722,88.798 201.344 C 88.973 197.793,89.224 194.373,89.355 193.744 C 89.971 190.788,90.402 178.648,89.903 178.332 C 89.019 177.771,75.200 177.927,75.003 178.500 M132.954 178.301 C 132.651 178.505,132.610 179.301,132.825 180.800 C 132.999 182.010,133.155 184.816,133.171 187.035 C 133.187 189.254,133.469 192.854,133.798 195.035 C 134.126 197.216,134.396 201.000,134.398 203.445 C 134.399 205.890,134.590 208.860,134.822 210.045 C 135.618 214.107,136.477 219.001,136.755 221.058 C 136.908 222.191,137.226 223.361,137.461 223.658 C 137.697 223.956,138.208 225.230,138.596 226.489 C 138.985 227.747,139.998 230.087,140.849 231.689 C 141.699 233.290,142.616 235.097,142.886 235.704 C 143.447 236.961,143.998 236.939,144.654 235.635 C 144.903 235.139,145.308 234.532,145.554 234.286 C 145.799 234.041,146.000 233.573,146.000 233.246 C 146.000 232.920,146.344 231.921,146.764 231.026 C 147.184 230.132,148.016 228.320,148.612 227.000 C 149.209 225.680,150.296 223.327,151.029 221.771 C 152.348 218.970,152.454 217.727,151.480 216.484 C 150.958 215.818,150.482 210.621,150.024 200.600 C 149.823 196.200,149.460 191.934,149.216 191.119 C 148.972 190.305,148.644 187.065,148.487 183.919 L 148.200 178.200 140.800 178.101 C 136.730 178.047,133.199 178.137,132.954 178.301 M161.408 229.377 C 160.903 229.777,159.200 233.224,159.200 233.847 C 159.200 234.006,158.967 234.421,158.683 234.769 C 158.398 235.116,157.929 236.120,157.640 237.000 C 157.350 237.880,156.821 239.050,156.464 239.600 C 156.108 240.150,155.611 241.140,155.362 241.800 C 155.112 242.460,154.783 243.292,154.631 243.648 C 153.864 245.443,154.902 245.600,167.567 245.600 C 179.941 245.600,180.800 245.485,180.800 243.822 C 180.800 243.649,181.430 242.162,182.200 240.518 C 182.970 238.874,183.600 237.462,183.600 237.380 C 183.600 237.298,184.230 235.903,185.000 234.281 C 185.770 232.659,186.400 231.142,186.400 230.910 C 186.400 230.629,183.008 230.440,176.259 230.342 C 169.541 230.246,165.930 230.044,165.559 229.746 C 164.773 229.112,162.048 228.870,161.408 229.377 "
            stroke="none" fill="none" fill-rule="evenodd"></path>
        <path id="path1"
            d="M74.000 40.800 C 74.000 41.020,73.100 41.200,72.000 41.200 C 70.900 41.200,70.000 41.380,70.000 41.600 C 70.000 41.820,69.760 42.000,69.467 42.000 C 68.110 42.000,63.600 43.720,63.600 44.237 C 63.600 44.547,63.238 44.800,62.795 44.800 C 61.843 44.800,60.467 45.523,59.557 46.500 C 59.199 46.885,58.684 47.200,58.414 47.200 C 58.143 47.200,57.417 47.740,56.800 48.400 C 56.183 49.060,55.391 49.600,55.040 49.600 C 54.667 49.600,54.400 49.934,54.400 50.400 C 54.400 50.855,54.133 51.200,53.782 51.200 C 53.442 51.200,52.722 51.642,52.182 52.182 C 51.642 52.722,51.200 53.442,51.200 53.782 C 51.200 54.133,50.855 54.400,50.400 54.400 C 49.934 54.400,49.600 54.667,49.600 55.040 C 49.600 55.391,49.060 56.183,48.400 56.800 C 47.740 57.417,47.200 58.143,47.200 58.414 C 47.200 58.684,46.885 59.199,46.500 59.557 C 45.523 60.467,44.800 61.843,44.800 62.795 C 44.800 63.238,44.548 63.600,44.239 63.600 C 43.744 63.600,42.000 68.245,42.000 69.562 C 42.000 69.803,41.820 70.000,41.600 70.000 C 41.380 70.000,41.200 70.900,41.200 72.000 C 41.200 73.100,41.020 74.000,40.800 74.000 C 40.534 74.000,40.400 116.267,40.400 200.000 C 40.400 283.733,40.534 326.000,40.800 326.000 C 41.020 326.000,41.200 326.900,41.200 328.000 C 41.200 329.100,41.380 330.000,41.600 330.000 C 41.820 330.000,42.000 330.197,42.000 330.438 C 42.000 331.755,43.744 336.400,44.239 336.400 C 44.548 336.400,44.800 336.762,44.800 337.205 C 44.800 338.157,45.523 339.533,46.500 340.443 C 46.885 340.801,47.200 341.316,47.200 341.586 C 47.200 341.857,47.740 342.583,48.400 343.200 C 49.060 343.817,49.600 344.609,49.600 344.960 C 49.600 345.333,49.934 345.600,50.400 345.600 C 50.861 345.600,51.200 345.867,51.200 346.229 C 51.200 346.961,52.138 348.000,52.800 348.000 C 53.462 348.000,54.400 349.039,54.400 349.771 C 54.400 350.117,54.688 350.400,55.040 350.400 C 55.391 350.400,56.183 350.940,56.800 351.600 C 57.417 352.260,58.143 352.800,58.414 352.800 C 58.684 352.800,59.199 353.115,59.557 353.500 C 60.467 354.477,61.843 355.200,62.795 355.200 C 63.238 355.200,63.600 355.453,63.600 355.763 C 63.600 356.280,68.110 358.000,69.467 358.000 C 69.760 358.000,70.000 358.180,70.000 358.400 C 70.000 358.620,70.900 358.800,72.000 358.800 C 73.100 358.800,74.000 358.980,74.000 359.200 C 74.000 359.466,116.267 359.600,200.000 359.600 C 283.733 359.600,326.000 359.466,326.000 359.200 C 326.000 358.980,326.900 358.800,328.000 358.800 C 329.100 358.800,330.000 358.620,330.000 358.400 C 330.000 358.180,330.240 358.000,330.533 358.000 C 331.890 358.000,336.400 356.280,336.400 355.763 C 336.400 355.453,336.762 355.200,337.205 355.200 C 338.157 355.200,339.533 354.477,340.443 353.500 C 340.801 353.115,341.316 352.800,341.586 352.800 C 341.857 352.800,342.583 352.260,343.200 351.600 C 343.817 350.940,344.609 350.400,344.960 350.400 C 345.333 350.400,345.600 350.066,345.600 349.600 C 345.600 349.145,345.867 348.800,346.218 348.800 C 346.558 348.800,347.278 348.358,347.818 347.818 C 348.358 347.278,348.800 346.558,348.800 346.218 C 348.800 345.867,349.145 345.600,349.600 345.600 C 350.066 345.600,350.400 345.333,350.400 344.960 C 350.400 344.609,350.940 343.817,351.600 343.200 C 352.260 342.583,352.800 341.857,352.800 341.586 C 352.800 341.316,353.115 340.801,353.500 340.443 C 354.477 339.533,355.200 338.157,355.200 337.205 C 355.200 336.762,355.452 336.400,355.761 336.400 C 356.256 336.400,358.000 331.755,358.000 330.438 C 358.000 330.197,358.180 330.000,358.400 330.000 C 358.620 330.000,358.800 329.100,358.800 328.000 C 358.800 326.900,358.980 326.000,359.200 326.000 C 359.466 326.000,359.600 283.733,359.600 200.000 C 359.600 116.267,359.466 74.000,359.200 74.000 C 358.980 74.000,358.800 73.100,358.800 72.000 C 358.800 70.900,358.620 70.000,358.400 70.000 C 358.180 70.000,358.000 69.803,358.000 69.562 C 358.000 68.245,356.256 63.600,355.761 63.600 C 355.452 63.600,355.200 63.238,355.200 62.795 C 355.200 61.843,354.477 60.467,353.500 59.557 C 353.115 59.199,352.800 58.684,352.800 58.414 C 352.800 58.143,352.260 57.417,351.600 56.800 C 350.940 56.183,350.400 55.391,350.400 55.040 C 350.400 54.667,350.066 54.400,349.600 54.400 C 349.145 54.400,348.800 54.133,348.800 53.782 C 348.800 52.982,347.018 51.200,346.218 51.200 C 345.867 51.200,345.600 50.855,345.600 50.400 C 345.600 49.934,345.333 49.600,344.960 49.600 C 344.609 49.600,343.817 49.060,343.200 48.400 C 342.583 47.740,341.857 47.200,341.586 47.200 C 341.316 47.200,340.801 46.885,340.443 46.500 C 339.533 45.523,338.157 44.800,337.205 44.800 C 336.762 44.800,336.400 44.547,336.400 44.237 C 336.400 43.720,331.890 42.000,330.533 42.000 C 330.240 42.000,330.000 41.820,330.000 41.600 C 330.000 41.380,329.100 41.200,328.000 41.200 C 326.900 41.200,326.000 41.020,326.000 40.800 C 326.000 40.534,283.733 40.400,200.000 40.400 C 116.267 40.400,74.000 40.534,74.000 40.800 M188.582 155.300 C 188.240 156.436,187.497 158.143,185.546 162.276 C 184.696 164.078,184.000 165.696,184.000 165.871 C 184.000 166.045,183.568 167.091,183.040 168.194 C 178.412 177.869,178.329 177.715,188.360 178.000 C 194.360 178.170,195.376 178.289,195.238 178.800 C 194.748 180.611,194.168 182.000,193.902 182.000 C 193.736 182.000,193.600 182.213,193.600 182.474 C 193.600 182.939,193.389 183.435,190.856 188.918 C 190.165 190.413,189.600 191.760,189.600 191.911 C 189.600 192.063,189.046 193.360,188.369 194.793 C 187.692 196.227,186.898 197.940,186.604 198.600 C 186.311 199.260,185.670 200.700,185.181 201.800 C 184.692 202.900,184.122 204.174,183.915 204.631 C 182.469 207.824,184.196 209.186,189.700 209.194 C 193.978 209.201,193.959 209.185,192.827 211.689 C 192.402 212.630,191.953 213.670,191.830 214.000 C 191.706 214.330,191.444 214.870,191.247 215.200 C 191.049 215.530,190.570 216.520,190.181 217.400 C 189.792 218.280,189.152 219.630,188.758 220.400 L 188.041 221.800 178.080 221.800 C 167.356 221.800,166.868 221.719,164.857 219.600 C 163.737 218.419,163.818 213.706,164.981 212.421 C 165.321 212.045,165.600 211.527,165.600 211.270 C 165.600 211.012,166.140 209.659,166.800 208.262 C 167.460 206.865,168.000 205.498,168.000 205.224 C 168.000 204.950,168.324 204.314,168.720 203.810 C 169.117 203.307,169.674 202.108,169.959 201.147 C 170.244 200.186,170.641 199.130,170.842 198.800 C 171.042 198.470,171.404 197.750,171.646 197.200 C 171.888 196.650,172.247 195.887,172.443 195.505 C 173.367 193.707,171.657 192.802,167.320 192.794 C 159.431 192.779,156.950 187.781,161.473 181.011 C 161.763 180.577,162.000 179.961,162.000 179.642 C 162.000 179.324,162.245 178.779,162.545 178.431 C 162.845 178.084,163.416 176.900,163.813 175.800 C 164.210 174.700,164.775 173.516,165.068 173.169 C 165.361 172.821,165.600 172.322,165.600 172.060 C 165.600 171.620,166.068 170.556,169.253 163.751 C 169.884 162.404,170.400 161.033,170.400 160.705 C 170.400 160.377,170.760 159.650,171.200 159.091 C 171.640 158.531,172.000 157.898,172.000 157.683 C 172.000 157.309,172.639 155.968,173.326 154.900 C 173.564 154.529,175.606 154.400,181.251 154.400 L 188.854 154.400 188.582 155.300 M279.903 156.200 C 279.959 157.080,280.098 158.363,280.211 159.051 L 280.418 160.302 286.309 160.519 C 290.309 160.667,293.035 160.977,294.800 161.487 C 302.346 163.664,306.686 168.234,308.015 175.400 C 308.259 176.720,308.562 180.980,308.686 184.868 C 308.950 193.104,308.865 192.880,311.875 193.257 C 318.716 194.114,321.030 195.030,324.103 198.104 C 328.247 202.247,328.429 203.095,328.675 219.400 C 328.871 232.451,328.680 234.724,327.125 237.812 C 325.827 240.389,321.655 244.400,320.272 244.400 C 319.956 244.400,319.051 244.670,318.262 245.000 C 317.160 245.460,315.097 245.600,309.409 245.600 L 301.991 245.600 301.017 243.500 C 298.497 238.069,297.600 235.955,297.600 235.448 C 297.600 235.145,297.330 234.674,297.000 234.400 C 295.338 233.020,296.191 232.800,303.193 232.800 L 309.985 232.800 311.393 231.433 L 312.800 230.067 312.800 221.813 C 312.800 212.672,312.699 212.216,310.249 210.300 L 308.843 209.200 295.098 209.200 C 284.729 209.200,281.187 209.323,280.678 209.700 C 280.065 210.154,279.993 211.821,279.901 227.800 L 279.800 245.400 272.000 245.400 L 264.200 245.400 264.096 227.836 C 264.024 215.680,263.855 210.107,263.547 209.736 C 263.203 209.322,261.354 209.200,255.431 209.200 C 245.930 209.200,246.800 210.054,246.800 200.720 L 246.800 193.200 254.920 193.200 C 264.936 193.200,264.000 194.070,264.000 184.763 C 264.000 175.939,264.599 176.744,257.800 176.425 L 253.000 176.200 252.891 168.510 L 252.783 160.820 253.691 160.608 C 254.191 160.492,256.670 160.352,259.200 160.298 L 263.800 160.200 263.910 157.800 C 264.080 154.104,263.423 154.369,272.091 154.491 L 279.800 154.600 279.903 156.200 M119.220 155.700 C 119.732 158.305,119.560 230.582,119.035 233.664 C 117.507 242.614,114.258 245.251,104.455 245.498 C 98.002 245.660,97.622 245.529,96.766 242.852 C 96.511 242.053,95.980 240.770,95.586 240.000 C 95.192 239.230,94.481 237.700,94.006 236.600 C 93.531 235.500,92.986 234.304,92.795 233.943 C 92.247 232.908,92.664 232.800,97.197 232.800 C 103.808 232.800,103.058 237.042,103.346 198.000 C 103.480 179.850,103.592 162.885,103.595 160.300 L 103.600 155.600 111.400 155.600 C 115.690 155.600,119.209 155.645,119.220 155.700 M240.557 161.033 C 240.691 161.381,240.800 164.696,240.800 168.400 C 240.800 177.123,241.249 176.400,235.833 176.400 C 231.875 176.400,231.248 176.495,230.475 177.216 L 229.600 178.031 229.600 203.339 C 229.600 224.548,229.692 228.773,230.167 229.424 C 230.686 230.134,231.405 230.217,238.667 230.400 L 246.600 230.600 246.600 238.000 L 246.600 245.400 218.700 245.503 C 192.682 245.599,189.741 245.502,191.200 244.600 C 191.420 244.464,191.600 243.924,191.600 243.400 C 191.600 242.876,191.779 242.336,191.998 242.201 C 192.407 241.948,194.924 236.727,195.418 235.106 C 195.570 234.608,195.920 233.930,196.195 233.600 C 196.470 233.270,196.869 232.460,197.080 231.800 L 197.465 230.600 204.966 230.400 C 211.799 230.218,212.517 230.131,213.033 229.424 C 213.508 228.773,213.600 224.524,213.600 203.170 L 213.600 177.692 212.614 177.046 C 211.866 176.556,210.623 176.400,207.457 176.400 C 204.022 176.400,203.243 176.288,203.043 175.767 C 202.564 174.520,202.773 161.387,203.280 160.880 C 204.105 160.055,240.239 160.203,240.557 161.033 M323.913 161.363 C 326.167 162.513,327.807 164.192,328.150 165.700 C 328.287 166.305,328.511 167.248,328.646 167.795 C 329.906 172.898,325.210 176.175,317.000 175.923 L 313.000 175.800 312.884 172.252 C 312.595 163.438,317.837 158.262,323.913 161.363 M280.496 177.369 C 279.664 178.426,279.632 190.942,280.457 192.500 C 280.941 193.413,291.324 193.536,292.500 192.643 C 294.377 191.219,293.209 177.200,291.213 177.200 C 290.792 177.200,290.336 177.020,290.200 176.800 C 289.606 175.840,281.317 176.325,280.496 177.369 M89.903 178.332 C 90.402 178.648,89.971 190.788,89.355 193.744 C 89.224 194.373,88.973 197.793,88.798 201.344 C 88.482 207.722,87.588 215.281,86.829 218.000 C 86.614 218.770,86.361 219.850,86.267 220.400 C 85.955 222.227,84.812 226.183,84.244 227.400 C 83.936 228.060,83.464 229.140,83.195 229.800 C 81.857 233.085,79.538 236.800,78.825 236.800 C 78.687 236.800,78.335 235.988,78.042 234.997 C 77.749 234.005,77.170 232.761,76.755 232.233 C 76.340 231.706,76.000 231.043,76.000 230.761 C 76.000 230.479,75.441 229.067,74.758 227.624 C 74.075 226.181,73.148 224.190,72.699 223.200 C 72.249 222.210,71.728 221.087,71.541 220.705 C 71.071 219.747,71.112 216.902,71.600 216.600 C 71.820 216.464,72.000 214.845,72.000 213.001 C 72.000 211.158,72.285 208.423,72.634 206.925 C 72.982 205.426,73.419 200.960,73.605 197.000 C 73.967 189.300,74.721 179.322,75.003 178.500 C 75.200 177.927,89.019 177.771,89.903 178.332 M148.487 183.919 C 148.644 187.065,148.972 190.305,149.216 191.119 C 149.460 191.934,149.823 196.200,150.024 200.600 C 150.482 210.621,150.958 215.818,151.480 216.484 C 152.454 217.727,152.348 218.970,151.029 221.771 C 150.296 223.327,149.209 225.680,148.612 227.000 C 148.016 228.320,147.184 230.132,146.764 231.026 C 146.344 231.921,146.000 232.920,146.000 233.246 C 146.000 233.573,145.799 234.041,145.554 234.286 C 145.308 234.532,144.903 235.139,144.654 235.635 C 143.998 236.939,143.447 236.961,142.886 235.704 C 142.616 235.097,141.699 233.290,140.849 231.689 C 139.998 230.087,138.985 227.747,138.596 226.489 C 138.208 225.230,137.697 223.956,137.461 223.658 C 137.226 223.361,136.908 222.191,136.755 221.058 C 136.477 219.001,135.618 214.107,134.822 210.045 C 134.590 208.860,134.399 205.890,134.398 203.445 C 134.396 201.000,134.126 197.216,133.798 195.035 C 133.469 192.854,133.187 189.254,133.171 187.035 C 133.155 184.816,132.999 182.010,132.825 180.800 C 132.408 177.901,132.157 177.986,140.800 178.101 L 148.200 178.200 148.487 183.919 M165.559 229.746 C 165.930 230.044,169.541 230.246,176.259 230.342 C 183.008 230.440,186.400 230.629,186.400 230.910 C 186.400 231.142,185.770 232.659,185.000 234.281 C 184.230 235.903,183.600 237.298,183.600 237.380 C 183.600 237.462,182.970 238.874,182.200 240.518 C 181.430 242.162,180.800 243.649,180.800 243.822 C 180.800 245.485,179.941 245.600,167.567 245.600 C 154.902 245.600,153.864 245.443,154.631 243.648 C 154.783 243.292,155.112 242.460,155.362 241.800 C 155.611 241.140,156.108 240.150,156.464 239.600 C 156.821 239.050,157.350 237.880,157.640 237.000 C 157.929 236.120,158.398 235.116,158.683 234.769 C 158.967 234.421,159.200 234.006,159.200 233.847 C 159.200 233.224,160.903 229.777,161.408 229.377 C 162.048 228.870,164.773 229.112,165.559 229.746 "
            stroke="none" fill="#000" fill-rule="evenodd"></path>
    </g>
</svg>