<svg width="24" height="24" viewBox="0 0 24 24" fill="none" xmlns="http://www.w3.org/2000/svg">
<path d="M3 11C3 10.4477 3.44772 10 4 10H6C6.55228 10 7 10.4477 7 11V13C7 13.5523 6.55228 14 6 14H4C3.44772 14 3 13.5523 3 13V11Z" fill="black"/>
<path d="M10 11C10 10.4477 10.4477 10 11 10H13C13.5523 10 14 10.4477 14 11V13C14 13.5523 13.5523 14 13 14H11C10.4477 14 10 13.5523 10 13V11Z" fill="black"/>
<path d="M17 11C17 10.4477 17.4477 10 18 10H20C20.5523 10 21 10.4477 21 11V13C21 13.5523 20.5523 14 20 14H18C17.4477 14 17 13.5523 17 13V11Z" fill="black"/>
</svg>
