<svg width="24" height="24" viewBox="0 0 24 24" fill="none" xmlns="http://www.w3.org/2000/svg">
<path fill-rule="evenodd" clip-rule="evenodd" d="M12 17C14.7614 17 17 14.7614 17 12C17 9.23858 14.7614 7 12 7C9.23858 7 7 9.23858 7 12C7 14.7614 9.23858 17 12 17ZM12 15.4375C13.8985 15.4375 15.4375 13.8985 15.4375 12C15.4375 10.1015 13.8985 8.5625 12 8.5625C10.1015 8.5625 8.5625 10.1015 8.5625 12C8.5625 13.8985 10.1015 15.4375 12 15.4375Z" fill="black"/>
<path d="M17.625 8.25C18.3154 8.25 18.875 7.69036 18.875 7C18.875 6.30964 18.3154 5.75 17.625 5.75C16.9346 5.75 16.375 6.30964 16.375 7C16.375 7.69036 16.9346 8.25 17.625 8.25Z" fill="black"/>
<path fill-rule="evenodd" clip-rule="evenodd" d="M8.25 2C4.79822 2 2 4.79822 2 8.25V15.75C2 19.2018 4.79822 22 8.25 22H15.75C19.2018 22 22 19.2018 22 15.75V8.25C22 4.79822 19.2018 2 15.75 2H8.25ZM15.75 3.875H8.25C5.83375 3.875 3.875 5.83375 3.875 8.25V15.75C3.875 18.1662 5.83375 20.125 8.25 20.125H15.75C18.1662 20.125 20.125 18.1662 20.125 15.75V8.25C20.125 5.83375 18.1662 3.875 15.75 3.875Z" fill="black"/>
</svg>
