<svg width="24" height="24" viewBox="0 0 24 24" fill="none" xmlns="http://www.w3.org/2000/svg">
<path fill-rule="evenodd" clip-rule="evenodd" d="M12 17.25C14.8995 17.25 17.25 14.8995 17.25 12C17.25 9.1005 14.8995 6.75 12 6.75C9.1005 6.75 6.75 9.1005 6.75 12C6.75 14.8995 9.1005 17.25 12 17.25ZM12 15.6094C13.9934 15.6094 15.6094 13.9934 15.6094 12C15.6094 10.0066 13.9934 8.39062 12 8.39062C10.0066 8.39062 8.39062 10.0066 8.39062 12C8.39062 13.9934 10.0066 15.6094 12 15.6094Z" fill="black"/>
<path d="M17.9062 8.0625C18.6311 8.0625 19.2188 7.47487 19.2188 6.75C19.2188 6.02513 18.6311 5.4375 17.9062 5.4375C17.1814 5.4375 16.5938 6.02513 16.5938 6.75C16.5938 7.47487 17.1814 8.0625 17.9062 8.0625Z" fill="black"/>
<path fill-rule="evenodd" clip-rule="evenodd" d="M8.0625 1.5C4.43813 1.5 1.5 4.43813 1.5 8.0625V15.9375C1.5 19.5619 4.43813 22.5 8.0625 22.5H15.9375C19.5619 22.5 22.5 19.5619 22.5 15.9375V8.0625C22.5 4.43813 19.5619 1.5 15.9375 1.5H8.0625ZM15.9375 3.46875H8.0625C5.52544 3.46875 3.46875 5.52544 3.46875 8.0625V15.9375C3.46875 18.4746 5.52544 20.5312 8.0625 20.5312H15.9375C18.4746 20.5312 20.5312 18.4746 20.5312 15.9375V8.0625C20.5312 5.52544 18.4746 3.46875 15.9375 3.46875Z" fill="black"/>
</svg>
