<svg width="24" height="24" viewBox="0 0 24 24" fill="none" xmlns="http://www.w3.org/2000/svg">
<path d="M22 14.2909V22H17.7823V14.7193C17.7823 12.8634 17.102 11.7213 15.6054 11.7213C14.6531 11.7213 13.7007 12.2924 13.4286 13.2917C13.2925 13.72 13.2925 14.0054 13.2925 14.4337V22H9.07483V8.58052H13.2925V10.4365C14.1088 9.00887 15.4694 8.15235 17.102 8.15235C19.8231 8.15235 22 10.1509 22 14.2909ZM4.44898 2.0136C3.22449 1.87084 2.13605 2.87016 2 4.155V4.29773C2 5.58257 2.95238 6.58185 4.17687 6.58185H4.31293C5.53742 6.72461 6.62585 5.72529 6.7619 4.44045V4.29773C6.7619 3.01289 5.94558 2.0136 4.72109 2.0136C4.58503 2.0136 4.58503 2.0136 4.44898 2.0136ZM2.27211 22H6.48979V8.58052H2.27211V22Z" fill="black"/>
</svg>
