<svg width="24" height="24" viewBox="0 0 24 24" fill="none" xmlns="http://www.w3.org/2000/svg">
<g clip-path="url(#clip0_22042_121425)">
<path d="M20.3887 13.9244V20.4H16.8482V14.2842C16.8482 12.7252 16.2772 11.7659 15.0209 11.7659C14.2214 11.7659 13.422 12.2456 13.1936 13.085C13.0794 13.4447 13.0794 13.6845 13.0794 14.0442V20.4H9.53891V9.12762H13.0794V10.6866C13.7646 9.48743 14.9067 8.76795 16.2772 8.76795C18.5613 8.76795 20.3887 10.4467 20.3887 13.9244ZM5.65584 3.6114C4.62797 3.49148 3.71431 4.33091 3.6001 5.41018V5.53007C3.6001 6.60933 4.39955 7.44873 5.42743 7.44873H5.54163C6.56951 7.56865 7.48317 6.72922 7.59738 5.64995V5.53007C7.59738 4.4508 6.91213 3.6114 5.88426 3.6114C5.77005 3.6114 5.77005 3.6114 5.65584 3.6114ZM3.82851 20.4H7.36896V9.12762H3.82851V20.4Z" fill="black"/>
</g>
<defs>
<clipPath id="clip0_22042_121425">
<rect width="24" height="24" fill="white"/>
</clipPath>
</defs>
</svg>
