<svg width="24" height="24" viewBox="0 0 24 24" fill="none" xmlns="http://www.w3.org/2000/svg">
<g clip-path="url(#clip0_22042_121369)">
<g clip-path="url(#clip1_22042_121369)">
<rect x="0.75" y="0.75" width="22.5" height="22.5" stroke="#FFE8E9" stroke-width="1.5"/>
<path fill-rule="evenodd" clip-rule="evenodd" d="M15.5911 21.75C14.472 22.1623 13.2623 22.3875 12 22.3875C10.7377 22.3875 9.528 22.1623 8.40885 21.75H15.5911ZM15.8828 21.6375H8.11722C7.66481 21.4551 7.22819 21.2417 6.80999 21H17.19C16.7718 21.2417 16.3352 21.4551 15.8828 21.6375ZM15.9046 21.75C15.156 22.0501 14.3647 22.2665 13.5425 22.3875H18C18.8753 22.3875 19.6597 21.998 20.1892 21.3829C19.762 21.6169 19.2715 21.75 18.75 21.75H15.9046ZM20.3822 21.1322C19.9179 21.451 19.3557 21.6375 18.75 21.6375H16.1743C16.6022 21.4519 17.0153 21.2387 17.4114 21H19.5C19.8803 21 20.2441 20.9292 20.5789 20.8001C20.5207 20.9155 20.4549 21.0264 20.3822 21.1322ZM20.4631 21.2131C19.9211 21.991 19.02 22.5 18 22.5H12H6C4.98002 22.5 4.07892 21.991 3.53689 21.2131C3.24472 21.0095 2.99049 20.7553 2.7869 20.4631C2.00903 19.9211 1.5 19.02 1.5 18V12V6C1.5 4.98002 2.00902 4.07893 2.7869 3.5369C2.99049 3.24473 3.24473 2.99049 3.5369 2.7869C4.07893 2.00902 4.98002 1.5 6 1.5H12H18C19.02 1.5 19.9211 2.00902 20.4631 2.7869C20.7553 2.99049 21.0095 3.24472 21.2131 3.5369C21.991 4.07893 22.5 4.98002 22.5 6V12V18C22.5 19.02 21.991 19.9211 21.2131 20.4631C21.0095 20.7553 20.7553 21.0095 20.4631 21.2131ZM20.9392 20.6329C20.8449 20.7425 20.7425 20.8449 20.6329 20.9392C20.6694 20.8726 20.7034 20.8044 20.7349 20.7349C20.8044 20.7034 20.8726 20.6694 20.9392 20.6329ZM21.3829 20.1892C21.998 19.6597 22.3875 18.8753 22.3875 18V13.5425C22.2664 14.3647 22.0501 15.156 21.75 15.9046V18.75C21.75 19.2715 21.6169 19.762 21.3829 20.1892ZM21.6375 16.1743V18.75C21.6375 19.3557 21.451 19.9179 21.1322 20.3822C21.0264 20.4549 20.9155 20.5207 20.8001 20.5789C20.9292 20.2441 21 19.8803 21 19.5V17.4114C21.2387 17.0153 21.4519 16.6022 21.6375 16.1743ZM21.75 15.5911C22.1623 14.472 22.3875 13.2623 22.3875 12C22.3875 10.7377 22.1623 9.528 21.75 8.40885V15.5911ZM21.6375 8.11722V15.8828C21.4551 16.3352 21.2417 16.7718 21 17.19V6.80999C21.2417 7.22819 21.4551 7.66481 21.6375 8.11722ZM21.75 8.09537C22.0501 8.84402 22.2664 9.63526 22.3875 10.4575V6C22.3875 5.12466 21.998 4.34029 21.3829 3.81076C21.6169 4.23802 21.75 4.72847 21.75 5.25V8.09537ZM21.1322 3.61776C21.451 4.08208 21.6375 4.64426 21.6375 5.25V7.82571C21.4519 7.39781 21.2387 6.9847 21 6.58862V4.5C21 4.11967 20.9292 3.75587 20.8001 3.42106C20.9155 3.47933 21.0264 3.54511 21.1322 3.61776ZM20.9392 3.36714C20.8449 3.25754 20.7425 3.15511 20.6329 3.06076C20.6694 3.12739 20.7034 3.19555 20.7349 3.26513C20.8044 3.29659 20.8726 3.33064 20.9392 3.36714ZM20.1892 2.61714C19.6597 2.002 18.8753 1.6125 18 1.6125H13.5425C14.3647 1.73355 15.156 1.94991 15.9046 2.25H18.75C19.2715 2.25 19.762 2.38308 20.1892 2.61714ZM16.1743 2.3625H18.75C19.3557 2.3625 19.9179 2.54902 20.3822 2.86777C20.4549 2.9736 20.5207 3.08451 20.5789 3.19987C20.2441 3.07077 19.8803 3 19.5 3H17.4114C17.0153 2.76134 16.6022 2.54809 16.1743 2.3625ZM15.8828 2.3625C16.3352 2.54494 16.7718 2.75831 17.19 3H6.80999C7.22819 2.75831 7.66481 2.54494 8.11722 2.3625H15.8828ZM15.5911 2.25H8.40886C9.528 1.83766 10.7377 1.6125 12 1.6125C13.2623 1.6125 14.472 1.83766 15.5911 2.25ZM8.09537 2.25C8.84402 1.94991 9.63526 1.73355 10.4575 1.6125H6C5.12466 1.6125 4.3403 2.002 3.81076 2.61714C4.23802 2.38308 4.72847 2.25 5.25 2.25H8.09537ZM3.36714 3.06076C3.25754 3.15511 3.15511 3.25754 3.06076 3.36714C3.12739 3.33064 3.19555 3.29659 3.26513 3.26513C3.29659 3.19555 3.33064 3.12739 3.36714 3.06076ZM2.61714 3.81076C2.002 4.3403 1.6125 5.12466 1.6125 6V10.4575C1.73355 9.63526 1.94991 8.84402 2.25 8.09537V5.25C2.25 4.72847 2.38308 4.23802 2.61714 3.81076ZM2.3625 7.82571V5.25C2.3625 4.64426 2.54902 4.08208 2.86777 3.61777C2.9736 3.54511 3.08451 3.47933 3.19987 3.42106C3.07077 3.75588 3 4.11967 3 4.5V6.58862C2.76134 6.9847 2.54809 7.39781 2.3625 7.82571ZM2.25 8.40886C1.83766 9.528 1.6125 10.7377 1.6125 12C1.6125 13.2623 1.83766 14.472 2.25 15.5911V8.40886ZM2.3625 15.8828V8.11722C2.54494 7.66481 2.75831 7.22819 3 6.80999V17.19C2.75831 16.7718 2.54494 16.3352 2.3625 15.8828ZM2.25 15.9046C1.94991 15.156 1.73355 14.3647 1.6125 13.5425V18C1.6125 18.8753 2.002 19.6597 2.61714 20.1892C2.38308 19.762 2.25 19.2715 2.25 18.75V15.9046ZM2.86776 20.3822C2.54902 19.9179 2.3625 19.3557 2.3625 18.75V16.1743C2.54809 16.6022 2.76134 17.0153 3 17.4114V19.5C3 19.8803 3.07078 20.2441 3.19987 20.5789C3.08451 20.5207 2.9736 20.4549 2.86776 20.3822ZM3.06076 20.6329C3.15511 20.7425 3.25754 20.8449 3.36714 20.9392C3.33064 20.8726 3.29659 20.8045 3.26513 20.7349C3.19555 20.7034 3.12739 20.6694 3.06076 20.6329ZM3.81076 21.3829C4.34029 21.998 5.12466 22.3875 6 22.3875H10.4575C9.63526 22.2665 8.84402 22.0501 8.09537 21.75H5.25C4.72847 21.75 4.23802 21.6169 3.81076 21.3829ZM7.82571 21.6375H5.25C4.64426 21.6375 4.08208 21.451 3.61777 21.1322C3.54512 21.0264 3.47933 20.9155 3.42107 20.8001C3.75588 20.9292 4.11967 21 4.5 21H6.58862C6.9847 21.2387 7.39781 21.4519 7.82571 21.6375ZM3.61777 2.86777C4.08208 2.54902 4.64426 2.3625 5.25 2.3625H7.82571C7.39781 2.54809 6.9847 2.76134 6.58862 3H4.5C4.11967 3 3.75588 3.07077 3.42106 3.19987C3.47933 3.08451 3.54511 2.9736 3.61777 2.86777ZM4.5 20.8875C4.09143 20.8875 3.70268 20.8026 3.35041 20.6496C3.19736 20.2973 3.1125 19.9086 3.1125 19.5V17.5938C3.95035 18.9222 5.07778 20.0497 6.40616 20.8875H4.5ZM6.62002 20.8875C5.18736 20.0184 3.98161 18.8126 3.1125 17.38V6.62002C3.98161 5.18736 5.18736 3.98161 6.62002 3.1125H17.38C18.8126 3.98161 20.0184 5.18736 20.8875 6.62002V17.38C20.0184 18.8126 18.8126 20.0184 17.38 20.8875H6.62002ZM6.40616 3.1125C5.07778 3.95035 3.95035 5.07778 3.1125 6.40616V4.5C3.1125 4.09143 3.19736 3.70268 3.35041 3.35041C3.70268 3.19736 4.09143 3.1125 4.5 3.1125H6.40616ZM19.5 3.1125C19.9086 3.1125 20.2973 3.19736 20.6496 3.35041C20.8026 3.70268 20.8875 4.09143 20.8875 4.5V6.40616C20.0497 5.07778 18.9222 3.95035 17.5938 3.1125H19.5ZM17.5938 20.8875C18.9222 20.0497 20.0497 18.9222 20.8875 17.5938V19.5C20.8875 19.9086 20.8026 20.2973 20.6496 20.6496C20.2973 20.8026 19.9086 20.8875 19.5 20.8875H17.5938Z" fill="#E1DFDD"/>
</g>
<path fill-rule="evenodd" clip-rule="evenodd" d="M21 13L3 13L3 4C3 3.44772 3.44772 3 4 3L20 3C20.5523 3 21 3.44772 21 4V13ZM19 11L5 11L5 5L19 5V11Z" fill="black"/>
<path d="M21 15H3V17H21V15Z" fill="black"/>
<path d="M21 19H3V21H21V19Z" fill="black"/>
</g>
<defs>
<clipPath id="clip0_22042_121369">
<rect width="24" height="24" fill="white"/>
</clipPath>
<clipPath id="clip1_22042_121369">
<rect width="24" height="24" fill="white"/>
</clipPath>
</defs>
</svg>
