<svg width="24" height="24" viewBox="0 0 32 32" fill="none" xmlns="http://www.w3.org/2000/svg">
<path d="M16 18C14.8954 18 14 18.8954 14 20V21.6754C14 21.8904 14.0347 22.104 14.1026 22.3079C14.7104 24.1313 17.2896 24.1313 17.8974 22.3079C17.9653 22.104 18 21.8904 18 21.6754V20C18 18.8954 17.1046 18 16 18Z" fill="black"/>
<path fill-rule="evenodd" clip-rule="evenodd" d="M9.00004 9.00002L9.00001 13.126C7.27478 13.5701 6 15.1362 6 17V25C6 27.2091 7.79086 29 10 29H22C24.2091 29 26 27.2091 26 25V17C26 15.1362 24.7252 13.5701 23 13.126V9C23 5.8561 20.1684 3 16 3C11.8317 3 9 5.85611 9.00004 9.00002ZM16 5C12.7436 5 11 7.1439 11 8.99998L11 13H21V9C21 7.1439 19.2564 5 16 5ZM22 15H10C8.89543 15 8 15.8954 8 17V25C8 26.1046 8.89543 27 10 27H22C23.1046 27 24 26.1046 24 25V17C24 15.8954 23.1046 15 22 15Z" fill="black"/>
</svg>
