<svg width="24" height="24" viewBox="0 0 24 24" fill="none" xmlns="http://www.w3.org/2000/svg">
<path d="M16.4 9.7H15.6571V8.21429C15.6571 6.164 13.9931 4.5 11.9429 4.5C9.89257 4.5 8.22857 6.164 8.22857 8.21429V9.7H7.48571C6.66857 9.7 6 10.3686 6 11.1857V18.6143C6 19.4314 6.66857 20.1 7.48571 20.1H16.4C17.2171 20.1 17.8857 19.4314 17.8857 18.6143V11.1857C17.8857 10.3686 17.2171 9.7 16.4 9.7ZM12 17.175C11.1829 17.175 10.5 14.9921 10.5 14.175C10.5 13.3579 11.1829 13.05 12 13.05C12.8171 13.05 13.5 13.3579 13.5 14.175C13.5 14.9921 12.8171 17.175 12 17.175ZM9.375 9.7V7.8C9.375 6.56685 10.7669 5.55 12 5.55C13.2331 5.55 14.625 6.56685 14.625 7.8V9.7H9.375Z" fill="#545454"/>
</svg>
