<svg width="24" height="24" viewBox="0 0 20 20" fill="none" xmlns="http://www.w3.org/2000/svg">
<path d="M13.6667 7.83333H13.0476V6.59524C13.0476 4.88667 11.661 3.5 9.95238 3.5C8.24381 3.5 6.85714 4.88667 6.85714 6.59524V7.83333H6.2381C5.55714 7.83333 5 8.39048 5 9.07143V15.2619C5 15.9429 5.55714 16.5 6.2381 16.5H13.6667C14.3476 16.5 14.9048 15.9429 14.9048 15.2619V9.07143C14.9048 8.39048 14.3476 7.83333 13.6667 7.83333ZM9.95238 13.4048C9.27143 13.4048 8.71429 12.8476 8.71429 12.1667C8.71429 11.4857 9.27143 10.9286 9.95238 10.9286C10.6333 10.9286 11.1905 11.4857 11.1905 12.1667C11.1905 12.8476 10.6333 13.4048 9.95238 13.4048ZM8.09524 7.83333V6.59524C8.09524 5.56762 8.92476 4.7381 9.95238 4.7381C10.98 4.7381 11.8095 5.56762 11.8095 6.59524V7.83333H8.09524Z" fill="#4A90E2"/>
</svg>
