<svg width="150" height="24" viewBox="0 0 150 24" fill="none" xmlns="http://www.w3.org/2000/svg">
<rect x="0.5" y="1.99988" width="149" height="20" rx="10" fill="#E8B237"/>
<path d="M9.76 15.9999V7.59988H10.744L14.512 13.9479H13.984L17.704 7.59988H18.688L18.7 15.9999H17.548L17.536 9.41188H17.812L14.5 14.9799H13.948L10.612 9.41188H10.912V15.9999H9.76ZM19.9489 15.9999L23.7529 7.59988H24.9409L28.7569 15.9999H27.4969L24.1009 8.27188H24.5809L21.1849 15.9999H19.9489ZM21.5689 13.8999L21.8929 12.9399H26.6209L26.9689 13.8999H21.5689ZM33.6848 16.0959C33.0368 16.0959 32.4408 15.9919 31.8968 15.7839C31.3528 15.5679 30.8808 15.2679 30.4808 14.8839C30.0808 14.4919 29.7688 14.0359 29.5448 13.5159C29.3208 12.9959 29.2088 12.4239 29.2088 11.7999C29.2088 11.1759 29.3208 10.6039 29.5448 10.0839C29.7688 9.56388 30.0808 9.11188 30.4808 8.72788C30.8888 8.33588 31.3648 8.03588 31.9088 7.82788C32.4528 7.61188 33.0528 7.50388 33.7088 7.50388C34.3728 7.50388 34.9808 7.61188 35.5328 7.82788C36.0848 8.04388 36.5528 8.36788 36.9368 8.79988L36.1928 9.54388C35.8488 9.20788 35.4728 8.96388 35.0648 8.81188C34.6648 8.65188 34.2288 8.57188 33.7568 8.57188C33.2768 8.57188 32.8288 8.65188 32.4128 8.81188C32.0048 8.97188 31.6488 9.19588 31.3448 9.48388C31.0488 9.77188 30.8168 10.1159 30.6488 10.5159C30.4888 10.9079 30.4088 11.3359 30.4088 11.7999C30.4088 12.2559 30.4888 12.6839 30.6488 13.0839C30.8168 13.4759 31.0488 13.8199 31.3448 14.1159C31.6488 14.4039 32.0048 14.6279 32.4128 14.7879C32.8208 14.9479 33.2648 15.0279 33.7448 15.0279C34.1928 15.0279 34.6208 14.9599 35.0288 14.8239C35.4448 14.6799 35.8288 14.4439 36.1808 14.1159L36.8648 15.0279C36.4488 15.3799 35.9608 15.6479 35.4008 15.8319C34.8488 16.0079 34.2768 16.0959 33.6848 16.0959ZM35.7128 14.8719V11.7519H36.8648V15.0279L35.7128 14.8719ZM39.1623 15.9999V7.59988H40.1463L45.7023 14.4999H45.1863V7.59988H46.3863V15.9999H45.4023L39.8463 9.09988H40.3623V15.9999H39.1623ZM48.9006 15.9999V7.59988H50.1006V15.9999H48.9006ZM53.6955 11.5719H58.0275V12.6039H53.6955V11.5719ZM53.8155 15.9999H52.6155V7.59988H58.5435V8.64388H53.8155V15.9999ZM60.2327 15.9999V7.59988H61.4327V15.9999H60.2327ZM67.7035 16.0959C67.0635 16.0959 66.4715 15.9919 65.9275 15.7839C65.3915 15.5679 64.9235 15.2679 64.5235 14.8839C64.1315 14.4919 63.8235 14.0359 63.5995 13.5159C63.3755 12.9959 63.2635 12.4239 63.2635 11.7999C63.2635 11.1759 63.3755 10.6039 63.5995 10.0839C63.8235 9.56388 64.1355 9.11188 64.5355 8.72788C64.9355 8.33588 65.4035 8.03588 65.9395 7.82788C66.4835 7.61188 67.0755 7.50388 67.7155 7.50388C68.3635 7.50388 68.9595 7.61588 69.5035 7.83988C70.0555 8.05588 70.5235 8.37988 70.9075 8.81188L70.1275 9.56788C69.8075 9.23188 69.4475 8.98388 69.0475 8.82388C68.6475 8.65588 68.2195 8.57188 67.7635 8.57188C67.2915 8.57188 66.8515 8.65188 66.4435 8.81188C66.0435 8.97188 65.6955 9.19588 65.3995 9.48388C65.1035 9.77188 64.8715 10.1159 64.7035 10.5159C64.5435 10.9079 64.4635 11.3359 64.4635 11.7999C64.4635 12.2639 64.5435 12.6959 64.7035 13.0959C64.8715 13.4879 65.1035 13.8279 65.3995 14.1159C65.6955 14.4039 66.0435 14.6279 66.4435 14.7879C66.8515 14.9479 67.2915 15.0279 67.7635 15.0279C68.2195 15.0279 68.6475 14.9479 69.0475 14.7879C69.4475 14.6199 69.8075 14.3639 70.1275 14.0199L70.9075 14.7759C70.5235 15.2079 70.0555 15.5359 69.5035 15.7599C68.9595 15.9839 68.3595 16.0959 67.7035 16.0959ZM73.7114 11.2239H78.0314V12.2439H73.7114V11.2239ZM73.8194 14.9559H78.7154V15.9999H72.6194V7.59988H78.5474V8.64388H73.8194V14.9559ZM80.6584 15.9999V7.59988H81.6424L87.1984 14.4999H86.6824V7.59988H87.8824V15.9999H86.8984L81.3424 9.09988H81.8584V15.9999H80.6584ZM92.0647 15.9999V8.64388H89.1847V7.59988H96.1327V8.64388H93.2527V15.9999H92.0647ZM103.11 16.0959C102.47 16.0959 101.858 15.9999 101.274 15.8079C100.69 15.6079 100.23 15.3519 99.8943 15.0399L100.338 14.1039C100.658 14.3839 101.066 14.6159 101.562 14.7999C102.058 14.9839 102.574 15.0759 103.11 15.0759C103.598 15.0759 103.994 15.0199 104.298 14.9079C104.602 14.7959 104.826 14.6439 104.97 14.4519C105.114 14.2519 105.186 14.0279 105.186 13.7799C105.186 13.4919 105.09 13.2599 104.898 13.0839C104.714 12.9079 104.47 12.7679 104.166 12.6639C103.87 12.5519 103.542 12.4559 103.182 12.3759C102.822 12.2959 102.458 12.2039 102.09 12.0999C101.73 11.9879 101.398 11.8479 101.094 11.6799C100.798 11.5119 100.558 11.2879 100.374 11.0079C100.19 10.7199 100.098 10.3519 100.098 9.90388C100.098 9.47188 100.21 9.07588 100.434 8.71588C100.666 8.34788 101.018 8.05588 101.49 7.83988C101.97 7.61588 102.578 7.50388 103.314 7.50388C103.802 7.50388 104.286 7.56788 104.766 7.69588C105.246 7.82388 105.662 8.00788 106.014 8.24788L105.618 9.20788C105.258 8.96788 104.878 8.79588 104.478 8.69188C104.078 8.57988 103.69 8.52388 103.314 8.52388C102.842 8.52388 102.454 8.58388 102.15 8.70388C101.846 8.82388 101.622 8.98388 101.478 9.18388C101.342 9.38388 101.274 9.60788 101.274 9.85588C101.274 10.1519 101.366 10.3879 101.55 10.5639C101.742 10.7399 101.986 10.8799 102.282 10.9839C102.586 11.0879 102.918 11.1839 103.278 11.2719C103.638 11.3519 103.998 11.4439 104.358 11.5479C104.726 11.6519 105.058 11.7879 105.354 11.9559C105.658 12.1239 105.902 12.3479 106.086 12.6279C106.27 12.9079 106.362 13.2679 106.362 13.7079C106.362 14.1319 106.246 14.5279 106.014 14.8959C105.782 15.2559 105.422 15.5479 104.934 15.7719C104.454 15.9879 103.846 16.0959 103.11 16.0959ZM109.207 11.2239H113.527V12.2439H109.207V11.2239ZM109.315 14.9559H114.211V15.9999H108.115V7.59988H114.043V8.64388H109.315V14.9559ZM118.461 15.9999L114.765 7.59988H116.061L119.457 15.3519H118.713L122.133 7.59988H123.333L119.649 15.9999H118.461ZM125.497 11.2239H129.817V12.2439H125.497V11.2239ZM125.605 14.9559H130.501V15.9999H124.405V7.59988H130.333V8.64388H125.605V14.9559ZM132.444 15.9999V7.59988H133.428L138.984 14.4999H138.468V7.59988H139.668V15.9999H138.684L133.128 9.09988H133.644V15.9999H132.444Z" fill="black"/>
</svg>
