<svg width="24" height="24" viewBox="0 0 24 24" fill="none" xmlns="http://www.w3.org/2000/svg">
<path fill-rule="evenodd" clip-rule="evenodd" d="M4.5 11.8929C4.5 11.4195 4.83579 11.0357 5.25 11.0357L18.75 11.0357C19.1642 11.0357 19.5 11.4195 19.5 11.8929C19.5 12.3662 19.1642 12.75 18.75 12.75L5.25 12.75C4.83579 12.75 4.5 12.3662 4.5 11.8929Z" fill="currentColor"/>
<path fill-rule="evenodd" clip-rule="evenodd" d="M4.5 11.8929C4.5 11.4195 4.83579 11.0357 5.25 11.0357L18.75 11.0357C19.1642 11.0357 19.5 11.4195 19.5 11.8929C19.5 12.3662 19.1642 12.75 18.75 12.75L5.25 12.75C4.83579 12.75 4.5 12.3662 4.5 11.8929Z" fill="currentColor"/>
</svg>
