<svg width="24" height="24" viewBox="0 0 24 24" fill="none" xmlns="http://www.w3.org/2000/svg">
<path fill-rule="evenodd" clip-rule="evenodd" d="M21.6032 19.6811L20.2482 21.0389L18.8025 19.5901L18.2363 20.1593L16.8813 18.8015L17.4474 18.2324L15.8941 16.6758L15.8117 16.7602L14.4567 15.4024L14.5391 15.318L13.5406 14.3175V22L7.3944 15.8412H3.95823C3.42933 15.8412 3.0005 15.4109 3 14.8811V9.11988L3.00468 9.02143C3.05389 8.53739 3.4622 8.15969 3.95823 8.15969H7.3944L3.56147 4.31797L4.91647 2.9602L21.6032 19.6811ZM8.46868 9.79877C8.28902 9.97855 8.0451 10.0801 7.79117 10.0801H4.91647V13.9209H7.79117L7.88569 13.9255C8.10508 13.9474 8.31141 14.0446 8.46868 14.2022L11.6241 17.3641V12.3971L8.74941 9.51653L8.46868 9.79877Z" fill="black"/>
<path d="M18.9138 4.54489L19.2741 4.92466C21.0239 6.86198 22 9.38726 22 12.0127C21.9998 13.7451 21.5736 15.4335 20.7816 16.9383L19.3471 15.4999C19.8264 14.4113 20.0834 13.2254 20.0835 12.0127C20.0835 9.86465 19.2852 7.79811 17.8536 6.21304L17.5588 5.90267L16.8813 5.22378L18.2363 3.866L18.9138 4.54489Z" fill="black"/>
<path d="M16.4892 7.93464L16.6857 8.14187C17.64 9.19856 18.1727 10.5761 18.1727 12.008C18.1725 12.6854 18.0522 13.3505 17.8255 13.9752L16.2375 12.384C16.2497 12.2597 16.2562 12.1339 16.2562 12.008C16.2562 11.0534 15.9013 10.1347 15.2652 9.43026L15.1342 9.29242L14.4567 8.61353L15.8117 7.25576L16.4892 7.93464Z" fill="black"/>
<path d="M13.5406 9.68156L11.6241 7.76117V6.63688L11.0626 7.19856L9.70764 5.84078L13.5406 2V9.68156Z" fill="black"/>
</svg>
