<svg width="24" height="24" viewBox="0 0 24 24" fill="none" xmlns="http://www.w3.org/2000/svg">
<path fill-rule="evenodd" clip-rule="evenodd" d="M4 2.58582L2.58579 4.00003L6.58584 8.00009H3C2.44772 8.00009 2 8.4478 2 9.00009V15.0001C2 15.5524 2.44772 16.0001 3 16.0001H6.64922L13 21.0807V14.4142L14.0422 15.4565L13.9559 15.5428L15.3703 16.9568L15.4564 16.8707L17.0771 18.4914L16.4859 19.0828L17.9003 20.4968L18.4914 19.9056L20 21.4142L21.4142 20L4 2.58582ZM11 12.4142L8.03693 9.45117L7.62469 9.78096C7.44738 9.92281 7.22707 10.0001 7 10.0001H4V14.0001H7C7.22707 14.0001 7.44738 14.0774 7.62469 14.2192L11 16.9195V12.4142Z" fill="black"/>
<path d="M11 7.08071V7.58582L13 9.58582V2.91946L9.29647 5.88229L10.7194 7.3052L11 7.08071Z" fill="black"/>
<path d="M15.8147 12.4005L17.4727 14.0585C17.7095 13.4072 17.8341 12.7138 17.8341 12.0076C17.8341 10.4166 17.2022 8.89076 16.0773 7.76559L15.3703 7.05838L13.9559 8.47238L14.6629 9.17959C15.4128 9.9297 15.8341 10.9469 15.8341 12.0076C15.8341 12.1394 15.8275 12.2705 15.8147 12.4005Z" fill="black"/>
<path d="M19.0614 15.6472L20.5579 17.1437C21.3845 15.5762 21.828 13.8173 21.828 12.0126C21.828 9.09579 20.6695 6.2984 18.6073 4.23559L17.9003 3.52838L16.4859 4.94238L17.1929 5.64959C18.8801 7.33734 19.828 9.62612 19.828 12.0126C19.828 13.2765 19.5621 14.5129 19.0614 15.6472Z" fill="black"/>
</svg>
