<svg xmlns="http://www.w3.org/2000/svg" width="24" height="24" viewBox="0 0 24 24" fill="none">
  <rect width="24" height="24" fill="white" />
  <path
    d="M12 3C13.7 3 15.483 3.6376 16.8291 4.7041C18.1714 5.76774 19 7.18717 19 8.74023C18.9999 10.294 18.1704 11.7184 16.8271 12.7871C15.4805 13.8585 13.6982 14.5 12 14.5C10.3009 14.5 8.51822 13.8609 7.17188 12.792C5.82898 11.7258 5 10.3035 5 8.75C5 7.19649 5.82898 5.77422 7.17188 4.70801C8.51822 3.63908 10.3009 3 12 3Z"
    stroke="black"
    stroke-width="2"
  />
  <path
    d="M13 15C13 15 13 15 13 18C13 19.0746 13 20.5 13 20.5L14 22C14 22 13 22 12 22C11 22 10 22 10 22L11 20.5C11 20 11 19.4037 11 18C11 15 11 15 11 15H13Z"
    fill="black"
  />
</svg>
