<svg version="1.1" id="Layer_1"
	xmlns="http://www.w3.org/2000/svg"
	xmlns:xlink="http://www.w3.org/1999/xlink" x="0px" y="0px" width="700px" height="88px" viewBox="0 0 700 88" enable-background="new 0 0 700 88" xml:space="preserve">
	<path d="M45.248,45.622H18.582V20.507h26.666c10.025,0,15.606,4.651,15.606,12.506C60.854,40.868,55.48,45.622,45.248,45.622z
	 M46.591,9.344H7.006v70.903h11.576V56.785h28.01c16.537,0,26.045-9.923,26.045-23.772C72.637,19.267,63.335,9.344,46.591,9.344z
	 M568.436,45.622h-26.665V20.507h26.665c10.026,0,15.607,4.651,15.607,12.506C584.043,40.868,578.668,45.622,568.436,45.622z
	 M569.779,9.344h-39.585v70.903h11.576V56.785h28.009c16.537,0,26.046-9.923,26.046-23.772
	C595.825,19.267,586.523,9.344,569.779,9.344z M389.113,9.344h-11.576v70.903h58.707V69.084h-47.131V9.344z M630.729,62.725
	l-3.905,10.449c9.096,5.169,24.607,8.52,35.562,8.52c20.258,0,32.971-7.958,32.971-21.911c0-16.434-15.606-19.328-32.557-20.981
	c-10.854-1.034-22.223-1.86-22.223-9.716c0-6.098,5.479-10.025,20.052-10.025c8.682,0,18.707,1.964,27.079,5.479l3.617-10.543
	c-9.302-4.03-20.567-6.098-30.49-6.098c-20.464,0-32.04,8.062-32.04,21.188c0,16.537,15.813,19.432,32.558,20.981
	c10.853,1.033,22.118,1.964,22.118,9.716c0,6.305-5.685,10.749-20.981,10.749C653.085,70.531,640.093,67.718,630.729,62.725z
	 M470.455,80.247h11.575V9.344h-11.575V80.247z M119.25,9.344h-11.369v70.903h11.266V54.614h46.406v25.633h11.37V9.344h-11.37
	v34.418h-46.406L119.25,9.344z M224.984,80.247h11.576V9.344h-11.576V80.247z M296.196,9.344H284.62v70.903h58.707V69.084h-47.13
	V9.344z"/>
</svg>
