<svg width="131" height="14" viewBox="0 0 131 14" fill="none" xmlns="http://www.w3.org/2000/svg">
<g id="Logo/ HP Button" clip-path="url(#clip0_3288_4057)">
<path id="Phillips Logo" d="M54.8166 0.274027H52.6224V13.726H63.7504V11.6083H54.8166V0.274027ZM41.3171 13.7273H43.5119V0.274027H41.3171V13.7273ZM21.276 0.274027H19.1214V13.726H21.2566V8.86215H30.0526V13.726H32.2079V0.274027H30.0526V6.80339H21.2566L21.276 0.274027ZM87.8477 13.7273H90.0425V0.274027H87.8477V13.7273ZM118.23 10.402L117.489 12.3843C119.214 13.3651 122.153 14 124.23 14C128.07 14 130.48 12.4912 130.48 9.84295C130.48 6.72565 127.521 6.17565 124.309 5.86211C122.252 5.66647 120.096 5.50969 120.096 4.01971C120.096 2.86206 121.135 2.11772 123.898 2.11772C125.543 2.11772 127.444 2.49021 129.031 3.15747L129.716 1.157C127.953 0.39193 125.817 0 123.936 0C120.058 0 117.863 1.52885 117.863 4.01971C117.863 7.1571 120.861 7.7058 124.034 7.99991C126.091 8.1962 128.227 8.37305 128.227 9.8436C128.227 11.0401 127.15 11.8829 124.25 11.8829C122.467 11.8823 120.004 11.3485 118.23 10.402ZM72.4298 0.274027H70.2357V13.726H81.3637V11.6083H72.4298V0.274027ZM106.676 0.274027H99.1724V13.726H101.367V9.27417H106.676C109.811 9.27417 111.614 7.39161 111.614 4.76406C111.614 2.15659 109.85 0.274027 106.676 0.274027ZM106.421 7.1571H101.367V2.39174H106.421C108.321 2.39174 109.379 3.27407 109.379 4.7647C109.38 6.25533 108.361 7.1571 106.421 7.1571ZM7.50343 0.274027H0V13.726H2.19414V9.27417H7.50343C10.638 9.27417 12.4399 7.39161 12.4399 4.76406C12.4406 2.15659 10.6775 0.274027 7.50343 0.274027ZM7.24907 7.1571H2.19414V2.39174H7.24907C9.14936 2.39174 10.2069 3.27407 10.2069 4.7647C10.2063 6.25533 9.18819 7.1571 7.24907 7.1571Z" fill="black"/>
</g>
<defs>
<clipPath id="clip0_3288_4057">
<rect width="130.667" height="14" fill="white"/>
</clipPath>
</defs>
</svg>
