<svg width="24" height="24" viewBox="0 0 24 24" fill="none" xmlns="http://www.w3.org/2000/svg">
<path d="M13.0488 15.7973C12.2119 15.6927 11.4797 15.2743 10.852 14.7513C10.4336 17.0526 9.9106 19.2493 8.23692 20.4C7.7139 16.948 8.96915 14.3329 9.49218 11.5085C8.55073 9.93947 9.59679 6.69668 11.5843 7.42892C14.0948 8.37037 9.38758 13.3915 12.5257 14.0191C15.7685 14.6467 17.1284 8.37039 15.1409 6.27829C12.2119 3.34935 6.66784 6.17368 7.29547 10.4625C7.50468 11.5085 8.55074 11.8224 7.7139 13.2869C5.831 12.8685 5.30798 11.4039 5.41258 9.41644C5.62179 6.38289 8.02771 3.97698 11.0613 3.66316C14.6178 3.24474 17.8606 4.91845 18.3836 8.26581C18.9066 12.0316 16.8145 16.1111 13.0488 15.7973Z" fill="black"/>
</svg>
