<svg width="24" height="24" viewBox="0 0 24 24" fill="none" xmlns="http://www.w3.org/2000/svg">
<path d="M17.0605 10.5762C17.2949 10.6096 17.6073 10.481 17.7861 10.6699C17.8157 10.9549 17.7938 11.242 17.7969 11.5293H17.0674C17.0627 11.2118 17.0605 10.8937 17.0605 10.5762Z" fill="black"/>
<path fill-rule="evenodd" clip-rule="evenodd" d="M19.3184 2C20.7189 2.00023 21.9631 3.21631 22 4.61523V19.3223C21.9838 20.0281 21.6959 20.7004 21.1963 21.1992C20.6965 21.6981 20.0234 21.985 19.3174 22H4.61719C3.92193 21.9677 3.26517 21.6722 2.7793 21.1738C2.29343 20.6755 2.0147 20.0113 2 19.3154V4.62207C2.03359 3.24479 3.23504 2.03917 4.6123 2H19.3184ZM9.05176 14.8447H9.05371C9.60678 15.008 10.1928 14.8963 10.7607 14.9268C10.9279 14.565 11.0943 14.202 11.2568 13.8379C10.6889 13.816 10.1107 13.8978 9.55371 13.7549C9.38344 14.1168 9.21631 14.4802 9.05176 14.8447ZM5.91992 9.14355C5.90977 10.6959 5.91504 12.2496 5.90723 13.8027C5.91322 13.8274 5.91379 13.8532 5.9082 13.8779C5.90261 13.9026 5.891 13.9257 5.875 13.9453C5.85885 13.965 5.83771 13.9808 5.81445 13.9912C5.79124 14.0016 5.76563 14.007 5.74023 14.0059C5.55365 14.0168 5.36607 14.0102 5.17871 14.0117C5.30444 14.3241 5.4405 14.6255 5.58105 14.9277C5.93405 14.916 6.33715 14.9897 6.63867 14.7588C6.90971 14.5573 6.99664 14.1986 6.99121 13.876C6.99121 12.2986 6.99141 10.7199 6.98438 9.14258C6.62982 9.14102 6.27448 9.14043 5.91992 9.14355ZM15.9844 9.07715V9.48438H15.2676V10.5723C15.5073 10.5723 15.7464 10.5725 15.9854 10.5771C15.9916 10.8896 15.9916 11.2048 15.9854 11.5215C15.626 11.5285 15.2656 11.5209 14.9062 11.5264C14.9016 11.8888 14.9023 12.2507 14.9062 12.6123C15.2663 12.6162 15.6272 12.6123 15.9873 12.6123V14.9238H17.0693V12.6143C17.5959 12.6143 18.1219 12.6064 18.6484 12.6143C18.8335 12.5986 19.045 12.728 19.0391 12.9316C19.0535 13.22 19.0535 13.5095 19.0391 13.7979C19.0418 13.8445 19.0261 13.8908 18.9951 13.9258C18.9641 13.9607 18.9197 13.9816 18.873 13.9844C18.5725 14.0062 18.2711 13.984 17.9697 13.9941C18.1025 14.3065 18.2311 14.6193 18.3818 14.9277C18.8779 14.902 19.4842 15.027 19.8623 14.6152C20.2215 14.2825 20.1141 13.7565 20.1289 13.3223C20.1063 12.8652 20.2182 12.3482 19.9346 11.9482C19.6932 11.6092 19.2574 11.5168 18.8652 11.5098C18.8419 10.963 18.9726 10.3233 18.5703 9.87891C18.1953 9.45859 17.591 9.45723 17.0723 9.47754V9.07129C16.7052 9.07519 16.3444 9.07559 15.9844 9.07715ZM12.123 9.48535V10.5723H12.8027V13.834C12.4786 13.8395 12.1533 13.834 11.8291 13.8379C11.6612 14.1987 11.4972 14.5614 11.334 14.9238C12.5432 14.9285 13.7558 14.9238 14.9619 14.9238V13.8379C14.6143 13.8379 14.2656 13.8379 13.918 13.834V10.5703H14.5996V9.48242C13.7762 9.48398 12.9496 9.48223 12.123 9.48535ZM5.17871 10.5645C4.82018 10.5769 4.464 10.5691 4.10938 10.5723C4.0547 11.2846 3.99882 11.9966 3.94727 12.709C3.93528 12.8706 3.90103 13.0297 3.84473 13.1816C4.02748 13.5995 4.21003 14.0177 4.40527 14.4316C4.84269 13.8465 5.00547 13.1089 5.05078 12.3926C5.08907 11.7833 5.15684 11.1745 5.17871 10.5645ZM7.86914 12.5537C7.92616 13.2161 8.09743 13.8913 8.50195 14.4287C8.69492 14.0154 8.87969 13.5982 9.0625 13.1787C9.00329 13.0263 8.9664 12.8661 8.95312 12.7031C8.90156 11.993 8.8457 11.2824 8.79102 10.5723H7.71289C7.76496 11.233 7.81707 11.8935 7.86914 12.5537ZM10.3008 9.07324C10.0362 9.68097 9.76617 10.2861 9.49121 10.8887C9.41313 11.069 9.31877 11.3084 9.48242 11.4717C9.69258 11.6623 10.002 11.5893 10.2598 11.6064C10.0809 12.058 9.84511 12.4867 9.69434 12.9492C9.6108 13.1773 9.81975 13.4098 10.0479 13.4121C10.4611 13.4402 10.876 13.4119 11.29 13.4229C11.4252 13.1205 11.5605 12.8186 11.6934 12.5146C11.4521 12.5147 11.2081 12.532 10.9707 12.4844C11.2277 11.8391 11.533 11.2146 11.8057 10.5771C11.4722 10.5381 11.0947 10.6471 10.79 10.5176C10.9384 10.0177 11.2088 9.55888 11.3994 9.07227C11.0322 9.0707 10.6664 9.06777 10.3008 9.07324ZM20.0898 9.84082C19.9875 9.50488 19.5332 9.3584 19.2598 9.58496C18.9568 9.81467 19.0562 10.2352 19.043 10.5625C19.2452 10.5625 19.4482 10.5736 19.6504 10.5557C19.9753 10.526 20.2202 10.147 20.0898 9.84082Z" fill="black"/>
</svg>
