<svg width="24" height="24" viewBox="0 0 24 24" fill="none" xmlns="http://www.w3.org/2000/svg">
<path fill-rule="evenodd" clip-rule="evenodd" d="M18.362 3.75H5.9543C4.79216 3.78296 3.77834 4.80007 3.75 5.96221V18.3601C3.7624 18.9472 3.99735 19.5077 4.4073 19.9282C4.81726 20.3486 5.37163 20.5977 5.95825 20.625H18.3614C18.9571 20.6124 19.525 20.3704 19.9467 19.9495C20.3684 19.5285 20.6114 18.961 20.625 18.3653V5.95693C20.594 4.77634 19.5439 3.75 18.362 3.75ZM7.05091 11.902C7.05169 11.1938 7.05247 10.4855 7.05711 9.77754C7.35637 9.7749 7.6563 9.77556 7.95557 9.77688C7.9615 11.1078 7.9615 12.4393 7.9615 13.7702C7.96611 14.0424 7.89294 14.345 7.66421 14.5151C7.46514 14.6677 7.21361 14.663 6.97087 14.6585C6.90336 14.6572 6.83652 14.656 6.77168 14.6581C6.65303 14.403 6.53833 14.1486 6.4322 13.8849C6.48165 13.8845 6.53109 13.8847 6.58052 13.8849C6.68923 13.8854 6.79785 13.886 6.90615 13.8796C6.92763 13.8805 6.94903 13.8765 6.96866 13.8677C6.98829 13.8589 7.0056 13.8457 7.01922 13.829C7.03285 13.8124 7.04241 13.7928 7.04716 13.7719C7.0519 13.7509 7.0517 13.7291 7.04656 13.7082C7.04959 13.1061 7.05025 12.5041 7.05091 11.902ZM10.0709 11.2501C10.3029 10.7417 10.5305 10.2311 10.7538 9.71821C11.0341 9.71402 11.3143 9.71527 11.5956 9.71652C11.6239 9.71665 11.6523 9.71677 11.6806 9.71689C11.6168 9.87977 11.5424 10.0389 11.4681 10.198C11.355 10.44 11.242 10.6818 11.1664 10.9364C11.3251 11.0039 11.5072 10.9949 11.6895 10.9858C11.8025 10.9802 11.9156 10.9745 12.0234 10.9871C11.9315 11.202 11.8353 11.415 11.739 11.6282C11.5944 11.9486 11.4496 12.2692 11.3194 12.5962C11.4778 12.628 11.6395 12.6256 11.8009 12.6232C11.8437 12.6225 11.8864 12.6219 11.9291 12.6219C11.8409 12.8237 11.7511 13.0242 11.6613 13.2248C11.637 13.2791 11.6126 13.3335 11.5883 13.3879C11.4451 13.3841 11.3018 13.3858 11.1585 13.3876C10.9522 13.3901 10.746 13.3926 10.5402 13.3786C10.3477 13.3767 10.1717 13.1809 10.2423 12.9884C10.3185 12.7544 10.4204 12.5306 10.5223 12.3068C10.5903 12.1573 10.6584 12.0078 10.7188 11.8553C10.6634 11.8516 10.6052 11.8528 10.5464 11.8541C10.3741 11.8579 10.1958 11.8618 10.0636 11.7419C9.9252 11.6041 10.005 11.4024 10.0709 11.2501ZM15.5493 10.0649V9.72151C15.6107 9.72124 15.6722 9.721 15.7337 9.72076C15.9765 9.71982 16.2204 9.71887 16.4676 9.71624V10.059C16.9052 10.0419 17.4148 10.0432 17.7312 10.3978C17.9949 10.6891 17.9873 11.0799 17.9801 11.456C17.978 11.5642 17.976 11.6712 17.9804 11.7742C18.3113 11.7801 18.6784 11.8579 18.8821 12.144C19.0609 12.3961 19.0535 12.703 19.0463 13.0029C19.0438 13.1045 19.0414 13.2053 19.0463 13.3028C19.0437 13.3786 19.0455 13.4576 19.0474 13.5379C19.0545 13.846 19.062 14.1717 18.8215 14.3944C18.5722 14.6659 18.2053 14.6608 17.8572 14.656C17.7598 14.6547 17.6638 14.6534 17.5723 14.6581C17.4632 14.4348 17.3677 14.2091 17.272 13.983C17.2561 13.9455 17.2402 13.9079 17.2243 13.8704C17.3319 13.8668 17.4394 13.868 17.5469 13.8692C17.6937 13.8708 17.8405 13.8725 17.987 13.8618C18.0264 13.8594 18.0632 13.8415 18.0894 13.812C18.1156 13.7824 18.1291 13.7437 18.1267 13.7043C18.1389 13.461 18.1389 13.2172 18.1267 12.9739C18.132 12.8019 17.9533 12.6924 17.7971 12.7056C17.501 12.7012 17.2051 12.7027 16.9091 12.7041C16.7611 12.7049 16.613 12.7056 16.4649 12.7056V14.6548H15.552V12.7043C15.4507 12.7043 15.3493 12.7047 15.248 12.705C15.0452 12.7058 14.8423 12.7065 14.6396 12.7043C14.6364 12.3991 14.6357 12.0939 14.6396 11.788C14.7823 11.7859 14.9252 11.786 15.068 11.7862C15.2287 11.7864 15.3894 11.7866 15.55 11.7834C15.5552 11.5162 15.5552 11.2508 15.55 10.9871C15.3483 10.9832 15.1466 10.9832 14.9443 10.9832H14.9442V10.0649H15.5493ZM12.2916 10.9832V10.0656C12.71 10.064 13.1282 10.0639 13.5459 10.0637C13.8244 10.0636 14.1026 10.0635 14.3806 10.063V10.9812H13.8058V13.7346C14.0991 13.7379 14.3931 13.7379 14.6865 13.7379V14.6542C14.3475 14.6542 14.0079 14.6546 13.6681 14.655C12.9875 14.6559 12.3058 14.6568 11.6252 14.6542C11.763 14.3483 11.9014 14.0424 12.0431 13.7379C12.1694 13.7364 12.2958 13.7365 12.4222 13.7367C12.5697 13.7369 12.7172 13.7371 12.8645 13.7346V10.9832H12.2916ZM18.1283 10.7866C18.1209 10.5524 18.1129 10.3018 18.3133 10.15C18.544 9.95881 18.927 10.0821 19.0133 10.3655C19.1234 10.6239 18.9171 10.9436 18.6428 10.9687C18.519 10.9797 18.3947 10.9778 18.2707 10.976C18.2237 10.9753 18.1768 10.9746 18.13 10.9746C18.1324 10.9148 18.1304 10.8513 18.1283 10.7866ZM5.50551 11.2982C5.51361 11.193 5.52171 11.0878 5.52979 10.9825C5.63662 10.9816 5.74362 10.9819 5.85082 10.9822C6.04391 10.9828 6.23765 10.9834 6.4322 10.9766C6.42097 11.2898 6.39535 11.6025 6.36973 11.9152C6.35324 12.1165 6.33674 12.3177 6.3241 12.5191C6.28586 13.1235 6.14876 13.7458 5.77961 14.2395C5.61482 13.8902 5.46057 13.5375 5.30632 13.1848C5.35394 13.0564 5.38323 12.922 5.39333 12.7854C5.42922 12.2895 5.46736 11.794 5.50551 11.2982ZM8.70242 12.6549L8.57058 10.9825H8.5686C8.87183 10.9812 9.17549 10.9814 9.47959 10.9832C9.49112 11.1329 9.50274 11.2827 9.51435 11.4324C9.54921 11.8819 9.58407 12.3313 9.6167 12.7808C9.6279 12.9183 9.65899 13.0535 9.70898 13.1822C9.55474 13.5362 9.39917 13.8882 9.23635 14.2369C8.8949 13.7834 8.75054 13.2138 8.70242 12.6549ZM10.6485 14.6584C10.3291 14.6684 10.0094 14.6784 9.70173 14.5876H9.69976C9.83862 14.28 9.97991 13.9734 10.1236 13.668C10.4455 13.7506 10.7758 13.7445 11.106 13.7384C11.2578 13.7356 11.4097 13.7327 11.5606 13.7386C11.4235 14.0457 11.2831 14.3516 11.142 14.6568C10.9787 14.648 10.8137 14.6532 10.6485 14.6584ZM16.6726 10.9833C16.5978 10.9894 16.5236 10.9954 16.457 10.9858C16.457 11.2539 16.4589 11.522 16.4629 11.79H17.0786C17.0777 11.7108 17.0791 11.6316 17.0805 11.5525C17.0834 11.3895 17.0862 11.2269 17.0693 11.0649C16.9693 10.9592 16.8197 10.9713 16.6726 10.9833Z" fill="black"/>
</svg>
