<svg width="24" height="24" viewBox="0 0 24 24" fill="none" xmlns="http://www.w3.org/2000/svg">
<path d="M18.6261 4.72169L19 5.12071V2H21V8H15V6H17.0619C15.6793 4.77 13.8044 4 11.7194 4C7.35309 4 4 7.32463 4 11.2011C4 11.257 4.00051 11.3115 4.00158 11.3644L2.03713 12C2.00928 11.7366 2 11.4644 2 11.2011C2 6.11765 6.35379 2 11.7194 2C14.4208 2 16.8623 3.04478 18.6261 4.72169Z" fill="black"/>
<path d="M9 18H5.93807C7.32074 19.23 9.19562 20 11.2806 20C15.6469 20 19 16.6754 19 12.7989C19 12.743 18.9995 12.6885 18.9984 12.6356L20.9629 12C20.9907 12.2634 21 12.5356 21 12.7989C21 17.8824 16.6462 22 11.2806 22C8.88575 22 6.69521 21.1789 5 19.8242L5 22H3V16H9V18Z" fill="black"/>
</svg>
