<svg width="18" height="18" viewBox="0 0 18 18" fill="none" xmlns="http://www.w3.org/2000/svg">
<g id="Search">
<path id="Vector" d="M12.0209 10.9563H11.4603L11.2616 10.7647C12.1131 9.77122 12.5531 8.41582 12.3118 6.97527C11.9783 5.00249 10.3319 3.4271 8.34498 3.18583C5.34323 2.81682 2.81694 5.34311 3.18595 8.34486C3.42723 10.3318 5.00261 11.9782 6.97539 12.3117C8.41594 12.553 9.77134 12.113 10.7648 11.2614L10.9564 11.4601V12.0208L13.9724 15.0367C14.2633 15.3276 14.7388 15.3276 15.0297 15.0367C15.3207 14.7457 15.3207 14.2703 15.0297 13.9793L12.0209 10.9563ZM7.76308 10.9563C5.99609 10.9563 4.56973 9.52994 4.56973 7.76296C4.56973 5.99597 5.99609 4.56961 7.76308 4.56961C9.53006 4.56961 10.9564 5.99597 10.9564 7.76296C10.9564 9.52994 9.53006 10.9563 7.76308 10.9563Z" fill="black"/>
</g>
</svg>
