<svg xmlns="http://www.w3.org/2000/svg" width="32" height="32" viewBox="0 0 32 32" fill="none">
  <path fill-rule="evenodd" clip-rule="evenodd" d="M19.7601 17.618C22.5903 14.0843 22.3676 8.91176 19.0919 5.63604C15.5771 2.12132 9.87866 2.12132 6.36394 5.63604C2.84923 9.15076 2.84923 14.8492 6.36394 18.364C9.63965 21.6397 14.8122 21.8624 18.3459 19.0322L19.7989 20.4853C19.4085 20.8758 19.4085 21.509 19.799 21.8995L23.3345 25.435C24.1156 26.2161 25.3819 26.2161 26.1629 25.435C26.944 24.654 26.944 23.3876 26.1629 22.6066L22.6274 19.0711C22.2369 18.6805 21.6037 18.6805 21.2132 19.0711L19.7601 17.618ZM17.6777 16.9497C20.4113 14.2161 20.4113 9.78392 17.6777 7.05025C14.944 4.31658 10.5118 4.31658 7.77816 7.05025C5.04449 9.78392 5.04449 14.2161 7.77816 16.9497C10.5118 19.6834 14.944 19.6834 17.6777 16.9497Z" fill="black"/>
</svg>