<svg width="24" height="24" viewBox="0 0 24 24" fill="none" xmlns="http://www.w3.org/2000/svg">
<path d="M7.41422 10.2426C8.19527 11.0236 9.4616 11.0236 10.2426 10.2426C11.0237 9.46153 11.0237 8.1952 10.2426 7.41416C9.4616 6.63311 8.19527 6.63311 7.41422 7.41416C6.63317 8.1952 6.63317 9.46153 7.41422 10.2426Z" fill="black"/>
<path fill-rule="evenodd" clip-rule="evenodd" d="M2 2V10.3518C2 10.8902 2.21708 11.4058 2.60213 11.7821L13.5029 22.4352L22.3932 12.7815L11.9439 2.56963C11.5702 2.20445 11.0685 2 10.546 2H2ZM4 10.3518V4H10.546L19.6068 12.8549L13.4273 19.5648L4 10.3518Z" fill="black"/>
</svg>
