<svg xmlns="http://www.w3.org/2000/svg" width="12" height="12" viewBox="0 0 12 12" fill="none">
<path d="M6 0.594666L8.51517 3.10983C8.66161 3.25628 8.66161 3.49371 8.51517 3.64016C8.36872 3.78661 8.13128 3.78661 7.98483 3.64016L6.375 2.03033L6.375 8.25C6.375 8.4571 6.20711 8.625 6 8.625C5.79289 8.625 5.625 8.4571 5.625 8.25L5.625 2.03033L4.01516 3.64016C3.86872 3.78661 3.63128 3.78661 3.48484 3.64016C3.33839 3.49371 3.33839 3.25628 3.48484 3.10983L6 0.594666Z" fill="black"/>
<path d="M3 5.625C2.58579 5.625 2.25 5.96078 2.25 6.375V9.75C2.25 10.1642 2.58579 10.5 3 10.5H9C9.41421 10.5 9.75 10.1642 9.75 9.75V6.375C9.75 5.96078 9.41421 5.625 9 5.625H7.875C7.66789 5.625 7.5 5.4571 7.5 5.25C7.5 5.04289 7.66789 4.875 7.875 4.875H9C9.82843 4.875 10.5 5.54657 10.5 6.375V9.75C10.5 10.5784 9.82843 11.25 9 11.25H3C2.17157 11.25 1.5 10.5784 1.5 9.75V6.375C1.5 5.54657 2.17157 4.875 3 4.875H4.125C4.33211 4.875 4.5 5.04289 4.5 5.25C4.5 5.4571 4.33211 5.625 4.125 5.625H3Z" fill="black"/>
</svg>