<svg width="30" height="30" viewBox="0 0 30 30" fill="none"
  xmlns="http://www.w3.org/2000/svg">
  <path d="M14.9999 0C6.71587 0 0 6.71585 0 15.0001C0 23.2847 6.71587 30 14.9999 30C23.2849 30 30 23.2847 30 15.0001C30 6.71638 23.2849 0.000716487 14.9997 0.000716487L14.9999 0ZM21.8788 21.6344C21.6101 22.0751 21.0333 22.2148 20.5927 21.9443C17.0709 19.7931 12.6373 19.3058 7.41604 20.4988C6.91289 20.6134 6.41136 20.2982 6.29673 19.7948C6.18155 19.2915 6.49555 18.79 6.99995 18.6753C12.7138 17.3693 17.615 17.932 21.5689 20.3483C22.0095 20.6188 22.1492 21.1938 21.8788 21.6344ZM23.7147 17.5495C23.3762 18.1003 22.6561 18.2741 22.1063 17.9356C18.0743 15.4567 11.9282 14.7389 7.15918 16.1866C6.54069 16.3734 5.88744 16.0249 5.69973 15.4074C5.51344 14.7889 5.86219 14.1369 6.47961 13.9488C11.9271 12.2959 18.6994 13.0966 23.3296 15.9419C23.8795 16.2805 24.0533 17.0004 23.7147 17.5495ZM23.8724 13.2965C19.038 10.4249 11.0618 10.1609 6.44611 11.5618C5.70492 11.7866 4.9211 11.3682 4.69648 10.627C4.47187 9.88542 4.88993 9.10212 5.63166 8.87678C10.9302 7.26826 19.7383 7.57904 25.3042 10.8833C25.9723 11.279 26.1909 12.14 25.795 12.8058C25.401 13.4725 24.5376 13.6923 23.8731 13.2965H23.8724Z" fill="#1ED760"/>
</svg>
