<svg width="24" height="24" viewBox="0 0 24 24" fill="none" xmlns="http://www.w3.org/2000/svg">
<path fill-rule="evenodd" clip-rule="evenodd" d="M4.2061 12C4.29126 12.1578 4.40093 12.3534 4.53443 12.5768C4.90542 13.1975 5.45398 14.0214 6.16487 14.8408C7.60994 16.5064 9.58793 18 12 18C14.4121 18 16.3901 16.5064 17.8351 14.8408C18.546 14.0214 19.0946 13.1975 19.4656 12.5768C19.5991 12.3534 19.7087 12.1578 19.7939 12C19.7087 11.8422 19.5991 11.6466 19.4656 11.4232C19.0946 10.8025 18.546 9.97857 17.8351 9.1592C16.3901 7.49361 14.4121 6 12 6C9.58793 6 7.60994 7.49361 6.16487 9.1592C5.45398 9.97857 4.90542 10.8025 4.53443 11.4232C4.40093 11.6466 4.29126 11.8422 4.2061 12ZM20.9075 12C21.804 11.5765 21.8039 11.5761 21.8037 11.5758L21.8023 11.5728L21.7994 11.5666L21.79 11.5467C21.7821 11.5301 21.771 11.507 21.7568 11.4779C21.7282 11.4197 21.687 11.3371 21.6331 11.2337C21.5256 11.027 21.3674 10.7363 21.16 10.3893C20.7465 9.69751 20.131 8.77143 19.3236 7.8408C17.7321 6.00639 15.2563 4 12 4C8.74369 4 6.26795 6.00639 4.67639 7.8408C3.86897 8.77143 3.25348 9.69751 2.84 10.3893C2.63263 10.7363 2.47444 11.027 2.36685 11.2337C2.31302 11.3371 2.27176 11.4197 2.24324 11.4779C2.22898 11.507 2.21789 11.5301 2.21001 11.5467L2.20059 11.5666L2.19768 11.5728L2.19668 11.575C2.19652 11.5753 2.19598 11.5765 3.09255 12L2.19598 11.5765L2 12L2.19598 12.4235L3.09255 12C2.19598 12.4235 2.19582 12.4232 2.19598 12.4235L2.19668 12.425L2.19768 12.4272L2.20059 12.4334L2.21001 12.4533C2.21789 12.4699 2.22898 12.493 2.24324 12.5221C2.27176 12.5803 2.31302 12.6629 2.36685 12.7663C2.47444 12.973 2.63263 13.2637 2.84 13.6107C3.25348 14.3025 3.86897 15.2286 4.67639 16.1592C6.26795 17.9936 8.74369 20 12 20C15.2563 20 17.7321 17.9936 19.3236 16.1592C20.131 15.2286 20.7465 14.3025 21.16 13.6107C21.3674 13.2637 21.5256 12.973 21.6331 12.7663C21.687 12.6629 21.7282 12.5803 21.7568 12.5221C21.771 12.493 21.7821 12.4699 21.79 12.4533L21.7994 12.4334L21.8023 12.4272L21.8033 12.425C21.8035 12.4247 21.804 12.4235 20.9075 12ZM20.9075 12L21.804 12.4235L22 12L21.8037 11.5758L20.9075 12ZM12 10C10.9068 10 10.0206 10.8954 10.0206 12C10.0206 13.1046 10.9068 14 12 14C13.0932 14 13.9794 13.1046 13.9794 12C13.9794 10.8954 13.0932 10 12 10ZM8.04113 12C8.04113 9.79086 9.81358 8 12 8C14.1864 8 15.9589 9.79086 15.9589 12C15.9589 14.2091 14.1864 16 12 16C9.81358 16 8.04113 14.2091 8.04113 12Z" fill="black"/>
</svg>
