<svg width="24" height="24" viewBox="0 0 24 24" fill="none" xmlns="http://www.w3.org/2000/svg">
<path d="M3 12L2.09412 11.5765L1.8961 12L2.09412 12.4235L3 12ZM21 12L21.9059 12.4235L22.1039 12L21.9059 11.5765L21 12ZM3 12C3.90588 12.4235 3.90576 12.4238 3.90564 12.424C3.90562 12.4241 3.90552 12.4243 3.90547 12.4244C3.90539 12.4246 3.90535 12.4247 3.90536 12.4246C3.90538 12.4246 3.9056 12.4241 3.90601 12.4233C3.90684 12.4215 3.90845 12.4181 3.91083 12.4132C3.9156 12.4033 3.92348 12.387 3.93443 12.3649C3.95636 12.3206 3.99057 12.2527 4.03685 12.1647C4.1295 11.9886 4.27009 11.7325 4.45687 11.4232C4.83171 10.8025 5.38597 9.97857 6.10424 9.1592C7.56433 7.49361 9.56287 6 12 6V4C8.70986 4 6.2084 6.00639 4.6003 7.8408C3.78449 8.77143 3.1626 9.69751 2.74483 10.3893C2.53531 10.7363 2.37547 11.027 2.26677 11.2337C2.21238 11.3371 2.17069 11.4197 2.14187 11.4779C2.12746 11.507 2.11626 11.5301 2.1083 11.5467C2.10431 11.5549 2.10114 11.5616 2.09878 11.5666C2.09759 11.5691 2.09661 11.5712 2.09584 11.5728C2.09545 11.5736 2.09511 11.5743 2.09483 11.575C2.09468 11.5753 2.0945 11.5756 2.09443 11.5758C2.09427 11.5761 2.09412 11.5765 3 12ZM12 6C14.4371 6 16.4357 7.49361 17.8958 9.1592C18.614 9.97857 19.1683 10.8025 19.5431 11.4232C19.7299 11.7325 19.8705 11.9886 19.9631 12.1647C20.0094 12.2527 20.0436 12.3206 20.0656 12.3649C20.0765 12.387 20.0844 12.4033 20.0892 12.4132C20.0916 12.4181 20.0932 12.4215 20.094 12.4233C20.0944 12.4241 20.0946 12.4246 20.0946 12.4246C20.0947 12.4247 20.0946 12.4246 20.0945 12.4244C20.0945 12.4243 20.0944 12.4241 20.0944 12.424C20.0942 12.4238 20.0941 12.4235 21 12C21.9059 11.5765 21.9057 11.5761 21.9056 11.5758C21.9055 11.5756 21.9053 11.5753 21.9052 11.575C21.9049 11.5743 21.9046 11.5736 21.9042 11.5728C21.9034 11.5712 21.9024 11.5691 21.9012 11.5666C21.8989 11.5616 21.8957 11.5549 21.8917 11.5467C21.8837 11.5301 21.8725 11.507 21.8581 11.4779C21.8293 11.4197 21.7876 11.3371 21.7332 11.2337C21.6245 11.027 21.4647 10.7363 21.2552 10.3893C20.8374 9.69751 20.2155 8.77143 19.3997 7.8408C17.7916 6.00639 15.2901 4 12 4V6ZM21 12C20.0941 11.5765 20.0942 11.5762 20.0944 11.576C20.0944 11.5759 20.0945 11.5757 20.0945 11.5756C20.0946 11.5754 20.0947 11.5753 20.0946 11.5754C20.0946 11.5754 20.0944 11.5759 20.094 11.5767C20.0932 11.5785 20.0916 11.5819 20.0892 11.5868C20.0844 11.5967 20.0765 11.613 20.0656 11.6351C20.0436 11.6794 20.0094 11.7473 19.9631 11.8353C19.8705 12.0114 19.7299 12.2675 19.5431 12.5768C19.1683 13.1975 18.614 14.0214 17.8958 14.8408C16.4357 16.5064 14.4371 18 12 18V20C15.2901 20 17.7916 17.9936 19.3997 16.1592C20.2155 15.2286 20.8374 14.3025 21.2552 13.6107C21.4647 13.2637 21.6245 12.973 21.7332 12.7663C21.7876 12.6629 21.8293 12.5803 21.8581 12.5221C21.8725 12.493 21.8837 12.4699 21.8917 12.4533C21.8957 12.4451 21.8989 12.4384 21.9012 12.4334C21.9024 12.4309 21.9034 12.4288 21.9042 12.4272C21.9046 12.4264 21.9049 12.4257 21.9052 12.425C21.9053 12.4247 21.9055 12.4244 21.9056 12.4242C21.9057 12.4239 21.9059 12.4235 21 12ZM12 18C9.56287 18 7.56433 16.5064 6.10424 14.8408C5.38597 14.0214 4.83171 13.1975 4.45687 12.5768C4.27009 12.2675 4.1295 12.0114 4.03685 11.8353C3.99057 11.7473 3.95636 11.6794 3.93443 11.6351C3.92348 11.613 3.9156 11.5967 3.91083 11.5868C3.90845 11.5819 3.90684 11.5785 3.90601 11.5767C3.9056 11.5759 3.90538 11.5754 3.90536 11.5754C3.90535 11.5753 3.90539 11.5754 3.90547 11.5756C3.90552 11.5757 3.90562 11.5759 3.90564 11.576C3.90576 11.5762 3.90588 11.5765 3 12C2.09412 12.4235 2.09427 12.4239 2.09443 12.4242C2.0945 12.4244 2.09468 12.4247 2.09483 12.425C2.09511 12.4257 2.09545 12.4264 2.09584 12.4272C2.09661 12.4288 2.09759 12.4309 2.09878 12.4334C2.10114 12.4384 2.10431 12.4451 2.1083 12.4533C2.11626 12.4699 2.12746 12.493 2.14187 12.5221C2.17069 12.5803 2.21238 12.6629 2.26677 12.7663C2.37547 12.973 2.53531 13.2637 2.74483 13.6107C3.1626 14.3025 3.78449 15.2286 4.6003 16.1592C6.2084 17.9936 8.70986 20 12 20V18ZM14 12C14 13.1046 13.1046 14 12 14V16C14.2091 16 16 14.2091 16 12H14ZM12 14C10.8954 14 10 13.1046 10 12H8C8 14.2091 9.79086 16 12 16V14ZM10 12C10 10.8954 10.8954 10 12 10V8C9.79086 8 8 9.79086 8 12H10ZM12 10C13.1046 10 14 10.8954 14 12H16C16 9.79086 14.2091 8 12 8V10Z" fill="black"/>
</svg>
