<svg width="24" height="24" viewBox="0 0 24 24" fill="none" xmlns="http://www.w3.org/2000/svg">
<path fill-rule="evenodd" clip-rule="evenodd" d="M14.6901 22L8.45673 15.841H4.97183C4.4351 15.841 4 15.411 4 14.8807V9.11928L4.00475 9.02082C4.05464 8.53674 4.46874 8.15904 4.97183 8.15904H8.45673L14.6901 2V22ZM9.54624 9.7982C9.36398 9.97828 9.11687 10.0795 8.85913 10.0795H5.94365V13.9205H8.85913L8.95498 13.9252C9.17752 13.947 9.38672 14.0442 9.54624 14.2018L12.7464 17.3638V6.63616L9.54624 9.7982Z" fill="black"/>
<path d="M18.3335 7.52326L18.5299 7.75394C19.4827 8.93031 20 10.4441 20 12C20 13.5559 19.4827 15.0697 18.5299 16.2461L18.3335 16.4767L17.69 17.196L16.2342 15.9244L16.8776 15.2052L17.0133 15.0458C17.6743 14.2291 18.0563 13.1453 18.0563 12C18.0563 10.8547 17.6743 9.77093 17.0133 8.95424L16.8776 8.79482L16.2342 8.07558L17.69 6.80401L18.3335 7.52326Z" fill="black"/>
</svg>
