<svg width="24" height="24" viewBox="0 0 24 24" fill="none" xmlns="http://www.w3.org/2000/svg">
<path d="M12 5H13V2.91938L11.3753 4.21913L12 5ZM7 9V10C7.22707 10 7.44738 9.92272 7.62469 9.78087L7 9ZM3 9V8C2.44772 8 2 8.44772 2 9H3ZM3 15H2C2 15.5523 2.44772 16 3 16V15ZM7 15L7.62469 14.2191C7.44738 14.0773 7.22707 14 7 14V15ZM12 19L11.3753 19.7809L13 21.0806V19H12ZM11.3753 4.21913L6.3753 8.21913L7.62469 9.78087L12.6247 5.78087L11.3753 4.21913ZM7 8H3V10H7V8ZM2 9V15H4V9H2ZM3 16H7V14H3V16ZM6.3753 15.7809L11.3753 19.7809L12.6247 18.2191L7.62469 14.2191L6.3753 15.7809ZM13 19V5H11V19H13Z" fill="black"/>
</svg>
