<svg width="24" height="24" viewBox="0 0 24 24" fill="none" xmlns="http://www.w3.org/2000/svg">
<path d="M12 5H13V2.91938L11.3753 4.21913L12 5ZM7 9V10C7.22707 10 7.44738 9.92272 7.62469 9.78087L7 9ZM3 9V8C2.44772 8 2 8.44772 2 9H3ZM3 15H2C2 15.5523 2.44772 16 3 16V15ZM7 15L7.62469 14.2191C7.44738 14.0773 7.22707 14 7 14V15ZM12 19L11.3753 19.7809L13 21.0806V19H12ZM18.6073 4.2355L17.9003 3.52829L16.4859 4.94229L17.1929 5.6495L18.6073 4.2355ZM17.1929 18.3755L16.4859 19.0827L17.9003 20.4967L18.6073 19.7895L17.1929 18.3755ZM16.0773 7.76551L15.3703 7.05829L13.9559 8.47229L14.6629 9.1795L16.0773 7.76551ZM14.6629 14.8355L13.9559 15.5427L15.3703 16.9567L16.0773 16.2495L14.6629 14.8355ZM11.3753 4.21913L6.3753 8.21913L7.62469 9.78087L12.6247 5.78087L11.3753 4.21913ZM7 8H3V10H7V8ZM2 9V15H4V9H2ZM3 16H7V14H3V16ZM6.3753 15.7809L11.3753 19.7809L12.6247 18.2191L7.62469 14.2191L6.3753 15.7809ZM13 19V5H11V19H13ZM17.1929 5.6495C18.8801 7.33725 19.828 9.62603 19.828 12.0125H21.828C21.828 9.0957 20.6695 6.29831 18.6073 4.2355L17.1929 5.6495ZM19.828 12.0125C19.828 14.399 18.8801 16.6878 17.1929 18.3755L18.6073 19.7895C20.6695 17.7267 21.828 14.9293 21.828 12.0125H19.828ZM14.6629 9.1795C15.4128 9.92962 15.8341 10.9468 15.8341 12.0075H17.8341C17.8341 10.4165 17.2022 8.89067 16.0773 7.76551L14.6629 9.1795ZM15.8341 12.0075C15.8341 13.0682 15.4128 14.0854 14.6629 14.8355L16.0773 16.2495C17.2022 15.1243 17.8341 13.5985 17.8341 12.0075H15.8341Z" fill="black"/>
</svg>
