<svg width="24" height="24" viewBox="0 0 24 24" fill="none" xmlns="http://www.w3.org/2000/svg">
<path fill-rule="evenodd" clip-rule="evenodd" d="M13.5407 2V22L7.39429 15.8409H3.95824C3.42902 15.8409 3 15.411 3 14.8807V9.11933C3 8.58901 3.42902 8.15911 3.95824 8.15911H7.39429L13.5407 2ZM11.6242 6.63638L8.46879 9.79831C8.28908 9.97839 8.04535 10.0796 7.79121 10.0796H4.91648V13.9204H7.79121C8.04535 13.9204 8.28908 14.0216 8.46879 14.2017L11.6242 17.3636V6.63638ZM18.2364 3.86527L18.9138 4.54435C20.8899 6.5251 22 9.21122 22 12.012C22 14.8128 20.8899 17.4989 18.9138 19.4797L18.2364 20.1587L16.881 18.801L17.5585 18.1219C19.1753 16.5013 20.0835 14.3036 20.0835 12.012C20.0835 9.72046 19.1753 7.52272 17.5585 5.90211L16.881 5.22302L18.2364 3.86527ZM15.812 7.25486L16.4895 7.93394C17.5673 9.01435 18.1728 10.4795 18.1728 12.0072C18.1728 13.5349 17.5673 15.0001 16.4895 16.0805L15.812 16.7596L14.4566 15.4018L15.1341 14.7227C15.8527 14.0024 16.2564 13.0257 16.2564 12.0072C16.2564 10.9887 15.8527 10.012 15.1341 9.2917L14.4566 8.61261L15.812 7.25486Z" fill="black"/>
</svg>
