<svg width="24" height="24" viewBox="0 0 24 24" fill="none" xmlns="http://www.w3.org/2000/svg">
<path d="M13 5H14V2.91938L12.3753 4.21913L13 5ZM8 9V10C8.22707 10 8.44738 9.92272 8.62469 9.78087L8 9ZM4 9V8C3.44772 8 3 8.44772 3 9H4ZM4 15H3C3 15.5523 3.44772 16 4 16V15ZM8 15L8.62469 14.2191C8.44738 14.0773 8.22707 14 8 14V15ZM13 19L12.3753 19.7809L14 21.0806V19H13ZM17.7494 7.3379L17.0873 6.58848L15.5885 7.91268L16.2506 8.6621L17.7494 7.3379ZM16.2506 15.3379L15.5885 16.0873L17.0873 17.4115L17.7494 16.6621L16.2506 15.3379ZM12.3753 4.21913L7.3753 8.21913L8.62469 9.78087L13.6247 5.78087L12.3753 4.21913ZM8 8H4V10H8V8ZM3 9V15H5V9H3ZM4 16H8V14H4V16ZM7.3753 15.7809L12.3753 19.7809L13.6247 18.2191L8.62469 14.2191L7.3753 15.7809ZM14 19V5H12V19H14ZM16.2506 8.6621C17.0163 9.52877 17.4639 10.7278 17.4639 12H19.4639C19.4639 10.2718 18.8584 8.59319 17.7494 7.3379L16.2506 8.6621ZM17.4639 12C17.4639 13.2722 17.0163 14.4712 16.2506 15.3379L17.7494 16.6621C18.8584 15.4068 19.4639 13.7282 19.4639 12H17.4639Z" fill="black"/>
</svg>
