<svg xmlns="http://www.w3.org/2000/svg" fill="none" viewBox="0 0 30 27" width="30" height="27">
  <path fill="#51C332" d="M20.625 7.864c.568 0 1.123.047 1.67.115C21.306 3.632 16.74.344 11.25.344 5.036.344 0 4.553 0 9.744c0 2.993 1.684 5.648 4.296 7.366l-1.484 2.974 4.04-1.735c.867.308 1.768.562 2.73.68a7.883 7.883 0 0 1-.207-1.765c0-5.183 5.046-9.4 11.25-9.4ZM15 4.574c.777 0 1.406.631 1.406 1.41 0 .779-.63 1.41-1.406 1.41a1.408 1.408 0 0 1-1.406-1.41c0-.779.63-1.41 1.406-1.41Zm-7.5 2.82a1.408 1.408 0 0 1-1.406-1.41c0-.779.63-1.41 1.406-1.41.777 0 1.406.631 1.406 1.41 0 .779-.63 1.41-1.406 1.41Z"/>
  <path fill="#51C332" d="M30 17.264c0-4.153-4.198-7.52-9.375-7.52s-9.375 3.367-9.375 7.52 4.198 7.52 9.375 7.52c.851 0 1.661-.12 2.447-.29l5.053 2.17-1.748-3.502C28.567 21.786 30 19.669 30 17.264Zm-12.188-.47a1.408 1.408 0 0 1-1.406-1.41c0-.779.63-1.41 1.407-1.41.776 0 1.406.631 1.406 1.41 0 .779-.63 1.41-1.407 1.41Zm5.625 0a1.408 1.408 0 0 1-1.406-1.41c0-.779.63-1.41 1.406-1.41.777 0 1.407.631 1.407 1.41 0 .779-.63 1.41-1.407 1.41Z"/>
</svg>