<svg width="24" height="24" viewBox="0 0 24 24" fill="none" xmlns="http://www.w3.org/2000/svg">
<path d="M16.0039 8.78613C19.3129 8.78637 22 11.1858 22 14.127C22 15.7716 21.1774 17.2233 19.8965 18.21C19.7327 18.326 19.6771 18.5199 19.7139 18.7129L20.0068 19.9707C20.0435 20.0865 19.9164 20.1837 19.8252 20.126L18.3438 19.2744C18.1791 19.1966 17.9968 19.177 17.832 19.2158C17.2656 19.3903 16.6616 19.4678 16.0215 19.4678C12.7124 19.4676 10.0255 17.0681 10.0254 14.127C10.0254 11.1856 12.6947 8.78613 16.0039 8.78613ZM9.23926 3C12.8045 3 15.7659 5.2638 16.3516 8.22461H16.0771C12.4575 8.22462 9.53223 10.8765 9.53223 14.1465C9.53188 14.652 9.60589 15.1545 9.75195 15.6357C9.56885 15.6552 9.40496 15.6553 9.24023 15.6553C8.47223 15.6553 7.72258 15.5388 7.00977 15.3457C6.84494 15.2881 6.6806 15.3077 6.53418 15.4043L4.39551 16.7578C4.26754 16.8357 4.12157 16.7009 4.1582 16.5654L4.70605 14.5137C4.72437 14.3783 4.68752 14.2431 4.57812 14.166C3.00591 13.0049 2 11.2633 2 9.32812C2.00005 5.82533 5.2356 3.00007 9.23926 3ZM13.7041 11.7061C13.5446 11.7397 13.3982 11.8227 13.2832 11.9443C13.1682 12.0661 13.0894 12.2217 13.0576 12.3906C13.026 12.5594 13.0423 12.7346 13.1045 12.8936C13.1668 13.0526 13.273 13.1885 13.4082 13.2842C13.5432 13.3796 13.7019 13.4306 13.8643 13.4307C13.9723 13.4311 14.0798 13.4088 14.1797 13.3652C14.2797 13.3217 14.3708 13.2577 14.4473 13.1768C14.5237 13.0958 14.5848 12.9994 14.626 12.8936C14.667 12.788 14.6879 12.6747 14.6875 12.5605C14.6875 12.3884 14.6392 12.2193 14.5488 12.0762C14.4585 11.9331 14.3299 11.8218 14.1797 11.7559C14.0294 11.69 13.8637 11.6725 13.7041 11.7061ZM17.7451 11.7061C17.5856 11.7396 17.4383 11.8226 17.3232 11.9443C17.2083 12.0661 17.1304 12.2218 17.0986 12.3906C17.067 12.5594 17.0833 12.7346 17.1455 12.8936C17.2078 13.0525 17.3131 13.1886 17.4482 13.2842C17.5835 13.3798 17.7426 13.4307 17.9053 13.4307C18.3436 13.4307 18.7273 13.0439 18.7275 12.5605C18.7275 12.3884 18.6792 12.2193 18.5889 12.0762C18.4985 11.9331 18.3699 11.8217 18.2197 11.7559C18.0696 11.6901 17.9045 11.6726 17.7451 11.7061ZM6.80762 6.34766C6.2774 6.3478 5.83911 6.81183 5.83887 7.37305C5.83887 7.93447 6.27726 8.39927 6.80762 8.39941C7.35649 8.39941 7.77637 7.93456 7.77637 7.37305C7.77613 6.81174 7.33795 6.34766 6.80762 6.34766ZM11.6709 6.34766C11.1414 6.34769 10.7024 6.81176 10.7021 7.37305C10.7021 7.93454 11.1404 8.39938 11.6709 8.39941C12.2014 8.39941 12.6396 7.93456 12.6396 7.37305C12.6394 6.81174 12.2012 6.34766 11.6709 6.34766Z" fill="black"/>
</svg>
