<svg width="24" height="24" viewBox="0 0 24 24" fill="none" xmlns="http://www.w3.org/2000/svg">
<g clip-path="url(#clip0_22042_121438)">
<path fill-rule="evenodd" clip-rule="evenodd" d="M15.4248 9.18866C12.3843 9.18866 9.92712 11.4161 9.92712 14.1628C9.92681 14.5876 9.98917 15.0098 10.1119 15.4142C9.95803 15.4305 9.82025 15.4305 9.6818 15.4305C9.0366 15.4305 8.40686 15.3324 7.80803 15.1702C7.66958 15.1218 7.5318 15.1382 7.40881 15.2193L5.61232 16.3568C5.50479 16.4222 5.3818 16.3084 5.41271 16.1946L5.87309 14.4716C5.88855 14.3577 5.85763 14.2439 5.76556 14.1792C4.44491 13.2038 3.6001 11.7412 3.6001 10.1156C3.6001 7.17324 6.31801 4.79999 9.68113 4.79999C12.6759 4.79999 15.1633 6.70158 15.6553 9.18866H15.4248ZM12.5375 8.47369C12.5375 8.00203 12.1692 7.61218 11.7236 7.61218C11.2787 7.61218 10.9097 8.00203 10.9097 8.47369C10.9097 8.94536 11.278 9.33521 11.7236 9.33521C12.1692 9.33521 12.5375 8.94536 12.5375 8.47369ZM6.82477 8.47369C6.82477 8.94536 7.19307 9.33521 7.63866 9.33521C8.09971 9.33521 8.45256 8.94536 8.45256 8.47369C8.45256 8.00203 8.08426 7.61218 7.63866 7.61218C7.19307 7.61218 6.82477 8.00203 6.82477 8.47369ZM15.3628 9.66039C18.1425 9.66039 20.4001 11.6758 20.4001 14.1465C20.4001 15.528 19.7092 16.7473 18.6332 17.5761C18.4954 17.6736 18.449 17.8365 18.4799 17.9987L18.7259 19.0551C18.7568 19.1526 18.6493 19.2344 18.5727 19.1853L17.3287 18.4703C17.1902 18.4049 17.037 18.3885 16.8985 18.4213C16.4227 18.5678 15.9159 18.6325 15.3783 18.6325C12.5986 18.6325 10.341 16.6172 10.341 14.1465C10.341 11.6758 12.5831 9.66039 15.3628 9.66039ZM13.1825 13.4384C13.2961 13.5188 13.4297 13.5617 13.5663 13.5617C13.6572 13.5621 13.7472 13.5434 13.8312 13.5068C13.9152 13.4702 13.9915 13.4163 14.0557 13.3484C14.1199 13.2804 14.1708 13.1996 14.2054 13.1107C14.24 13.0218 14.2576 12.9265 14.2572 12.8304C14.2572 12.6857 14.2167 12.5443 14.1408 12.4241C14.0649 12.3038 13.957 12.2101 13.8307 12.1547C13.7045 12.0994 13.5656 12.0849 13.4316 12.1131C13.2975 12.1413 13.1744 12.211 13.0778 12.3133C12.9812 12.4155 12.9154 12.5458 12.8887 12.6877C12.8621 12.8296 12.8757 12.9766 12.928 13.1102C12.9803 13.2439 13.0689 13.3581 13.1825 13.4384ZM16.5765 13.4384C16.6901 13.5188 16.8237 13.5617 16.9604 13.5617C17.3287 13.5617 17.6513 13.2366 17.6513 12.8304C17.6513 12.6857 17.6107 12.5443 17.5348 12.4241C17.4589 12.3038 17.351 12.2101 17.2248 12.1547C17.0985 12.0994 16.9596 12.0849 16.8256 12.1131C16.6915 12.1413 16.5684 12.211 16.4718 12.3133C16.3752 12.4155 16.3094 12.5458 16.2827 12.6877C16.2561 12.8296 16.2698 12.9766 16.322 13.1102C16.3743 13.2439 16.4629 13.3581 16.5765 13.4384Z" fill="black"/>
</g>
<defs>
<clipPath id="clip0_22042_121438">
<rect width="24" height="24" fill="white"/>
</clipPath>
</defs>
</svg>
